<?xml version="1.0" encoding="UTF-8"?>
<svg version="1.1" xmlns="http://www.w3.org/2000/svg" width="128" height="128">
<path d="M0 0 C2.625 2.375 2.625 2.375 4 5 C4 5.66 4 6.32 4 7 C2.0509375 6.7215625 2.0509375 6.7215625 0.0625 6.4375 C-2.08575543 6.1018371 -2.08575543 6.1018371 -4 6 C-4.33 6.33 -4.66 6.66 -5 7 C-4.03578125 7.12117187 -3.0715625 7.24234375 -2.078125 7.3671875 C-0.81484375 7.53476563 0.4484375 7.70234375 1.75 7.875 C3.62945312 8.11863281 3.62945312 8.11863281 5.546875 8.3671875 C8.48616408 8.9058355 10.47107147 9.48008841 13 11 C13.144375 10.05125 13.28875 9.1025 13.4375 8.125 C14 5 14 5 15 3 C17.97 3 20.94 3 24 3 C24.226875 3.804375 24.45375 4.60875 24.6875 5.4375 C25.120625 6.283125 25.55375 7.12875 26 8 C26.77085938 8.14179688 27.54171875 8.28359375 28.3359375 8.4296875 C33.4495362 9.52438751 36.11822637 13.88723252 39 18 C46.5377463 32.03641075 51.17646905 48.49043428 51.1875 64.375 C51.19974609 65.29539062 51.21199219 66.21578125 51.22460938 67.1640625 C51.23616249 72.55551396 50.64191186 76.87957131 49 82 C49 93.23839913 54.31495951 104.50437922 60 114 C56.04912191 112.83269511 53.21574716 111.55162546 50 109 C49.62488281 109.80824219 49.24976562 110.61648437 48.86328125 111.44921875 C43.61341307 122.41178983 43.61341307 122.41178983 39 126 C38.34 126 37.68 126 37 126 C37 123.03 37 120.06 37 117 C36.46890625 117.42152344 35.9378125 117.84304687 35.390625 118.27734375 C34.33101562 119.09912109 34.33101562 119.09912109 33.25 119.9375 C32.20585937 120.75541016 32.20585937 120.75541016 31.140625 121.58984375 C26.9121205 124.37540967 22.97613023 124.09569481 18 124 C18.28617187 123.43796875 18.57234375 122.8759375 18.8671875 122.296875 C20.01415931 119.97129077 21.07839794 117.62229799 22.125 115.25 C22.47820312 114.45078125 22.83140625 113.6515625 23.1953125 112.828125 C23.46085937 112.22484375 23.72640625 111.6215625 24 111 C22.56138706 111.08746284 21.12402492 111.19565348 19.6875 111.3125 C18.88699219 111.37050781 18.08648437 111.42851563 17.26171875 111.48828125 C14.51199476 112.11041224 13.62160266 112.70190052 12 115 C11.28103188 117.65999022 11.28103188 117.65999022 10.9375 120.5625 C10.20833333 125.79166667 10.20833333 125.79166667 8 128 C5 128.25 5 128.25 2 128 C-0.76223278 125.23776722 -0.57856291 122.79293383 -1 119 C-1.99 118.67 -2.98 118.34 -4 118 C-4.66 120.97 -5.32 123.94 -6 127 C-7.98 127 -9.96 127 -12 127 C-12.24234375 126.43410156 -12.4846875 125.86820312 -12.734375 125.28515625 C-13.06953125 124.55167969 -13.4046875 123.81820312 -13.75 123.0625 C-14.23726562 121.96615234 -14.23726562 121.96615234 -14.734375 120.84765625 C-15.86169372 118.81193356 -15.86169372 118.81193356 -18.140625 118.24609375 C-19.06101562 118.12427734 -19.06101562 118.12427734 -20 118 C-19.505 118.45375 -19.01 118.9075 -18.5 119.375 C-17 121 -17 121 -17 123 C-24.95832585 122.96613478 -30.68192944 120.88435455 -37 116 C-37.66 115.01 -38.32 114.02 -39 113 C-38.73606499 116.43230448 -38.73606499 116.43230448 -38 120 C-36.515 120.99 -36.515 120.99 -35 122 C-35 122.66 -35 123.32 -35 124 C-36.41765314 123.96667909 -37.83447371 123.89697496 -39.25 123.8125 C-40.03890625 123.77769531 -40.8278125 123.74289063 -41.640625 123.70703125 C-45.0971482 122.67121883 -46.1446662 121.04804839 -48 118 C-48.609375 114.66796875 -48.609375 114.66796875 -48.75 111.1875 C-48.80671875 110.02605469 -48.8634375 108.86460938 -48.921875 107.66796875 C-48.96054687 106.34732422 -48.96054687 106.34732422 -49 105 C-49.60328125 105.48082031 -50.2065625 105.96164063 -50.828125 106.45703125 C-53.25047518 108.17794549 -55.08577697 108.5952468 -58 109 C-57.42137365 105.09427217 -55.47900791 102.98939189 -53 100 C-51.0645852 97.60943058 -51.0645852 97.60943058 -50 95 C-50.82299454 92.58201525 -50.82299454 92.58201525 -52 90 C-52.57710165 88.3242874 -53.11784768 86.63569185 -53.625 84.9375 C-53.88539062 84.10089844 -54.14578125 83.26429687 -54.4140625 82.40234375 C-56.14978709 72.32356965 -54.53057113 62.52902464 -52.65625 52.59985352 C-52.2503744 50.43949282 -51.86633799 48.27602989 -51.484375 46.11132812 C-47.79260506 25.74621336 -47.79260506 25.74621336 -42.375 19.875 C-39.29044625 16.14106651 -38.70049377 12.70480888 -38 8 C-30.89006342 7.2769556 -30.89006342 7.2769556 -28.35546875 9.3359375 C-27 11 -27 11 -25 14 C-24.071875 13.505 -23.14375 13.01 -22.1875 12.5 C-19 11 -19 11 -16 11 C-16.495 8.03 -16.495 8.03 -17 5 C-11.25565514 0.31382393 -7.47194273 -1.10873989 0 0 Z M42 40 C43.35932161 57.08202026 43.35932161 57.08202026 46 74 C49.54959189 68.67561217 50.57399085 62.92769299 49.33984375 56.6328125 C47.60946078 50.93504956 45.51100021 45.39865046 43 40 C42.67 40 42.34 40 42 40 Z M-48 53 C-52.48417212 65.01117532 -55.31883175 73.87763668 -49.875 86.1640625 C-49.441875 87.07285156 -49.441875 87.07285156 -49 88 C-46.60370545 84.40555817 -46.74218669 81.85138348 -46.8046875 77.70703125 C-46.8075174 77.00100266 -46.81034729 76.29497406 -46.81326294 75.56755066 C-46.82444536 73.31569367 -46.8495458 71.06423648 -46.875 68.8125 C-46.88503233 67.28451096 -46.89415774 65.75651567 -46.90234375 64.22851562 C-46.92437828 60.48552337 -46.95889433 56.74282944 -47 53 C-47.33 53 -47.66 53 -48 53 Z M23 67 C22.13375 68.423125 22.13375 68.423125 21.25 69.875 C18.89959599 73.13945002 17.80047354 73.99987538 14 75 C13.34 75 12.68 75 12 75 C12.33 75.99 12.66 76.98 13 78 C17.61513112 76.68139111 21.09897612 74.78644563 25 72 C24.67 70.35 24.34 68.7 24 67 C23.67 67 23.34 67 23 67 Z M6 71 C6.99 71.99 7.98 72.98 9 74 C11.0162233 73.28436734 11.0162233 73.28436734 13 72 C13.80528889 69.94999129 13.80528889 69.94999129 14 68 C11.39060143 68 8.3598011 69.97026861 6 71 Z M-15 75 C-14.67 75.66 -14.34 76.32 -14 77 C-13.01 76.34 -12.02 75.68 -11 75 C-12.32 75 -13.64 75 -15 75 Z M-24 76 C-21.84658021 78.15341979 -20.96076291 78.64111965 -18 79 C-17.01 78.34 -16.02 77.68 -15 77 C-17.97 76.67 -20.94 76.34 -24 76 Z " fill="#428DAB" transform="translate(58,0)"/>
<path d="M0 0 C2.625 2.375 2.625 2.375 4 5 C4 5.66 4 6.32 4 7 C2.0509375 6.7215625 2.0509375 6.7215625 0.0625 6.4375 C-2.08575543 6.1018371 -2.08575543 6.1018371 -4 6 C-4.33 6.33 -4.66 6.66 -5 7 C-1.7 7.33 1.6 7.66 5 8 C4.34 8.66 3.68 9.32 3 10 C3.99 10.66 4.98 11.32 6 12 C5.34 12.33 4.68 12.66 4 13 C3.01 12.67 2.02 12.34 1 12 C-2.54187831 11.66661404 -2.54187831 11.66661404 -6 12 C-6.66 12.99 -7.32 13.98 -8 15 C-7.278125 14.896875 -6.55625 14.79375 -5.8125 14.6875 C-1.87958411 15.12449065 -0.53678077 17.10082197 2 20 C1.30003906 19.67644531 0.60007813 19.35289063 -0.12109375 19.01953125 C-3.27071046 17.90413103 -5.72995587 17.70013923 -9.0625 17.6875 C-10.08472656 17.67074219 -11.10695312 17.65398438 -12.16015625 17.63671875 C-15.4229123 18.0541002 -16.6847221 18.69494408 -19 21 C-23.04447292 27.69085643 -23.52304688 34.35770396 -23 42 C-21.906875 42.309375 -20.81375 42.61875 -19.6875 42.9375 C-17.44592006 43.58337897 -15.2130649 44.2623117 -13 45 C-11.43881572 45.06740865 -9.8749748 45.08514456 -8.3125 45.0625 C-6.889375 45.041875 -5.46625 45.02125 -4 45 C-3.67 42.03 -3.34 39.06 -3 36 C-2.34 36 -1.68 36 -1 36 C-0.505 37.98 -0.505 37.98 0 40 C-0.33 40 -0.66 40 -1 40 C-3.38156139 48.07033659 -3.38156139 48.07033659 -2 56 C-5.95820859 55.43454163 -8.6659053 54.19097652 -12 52 C-11.34 53.65 -10.68 55.3 -10 57 C-16.31380335 55.76803837 -19.28718988 51.90950098 -23 47 C-23.33 46.34 -23.66 45.68 -24 45 C-27.16727335 50.1468192 -27.35050464 54.158256 -27 60 C-24.22003893 60 -21.57507433 59.78702071 -18.8125 59.5 C-17.91144531 59.4071875 -17.01039062 59.314375 -16.08203125 59.21875 C-15.05142578 59.11046875 -15.05142578 59.11046875 -14 59 C-16.71077243 61.97126708 -19.13151386 62.88243734 -23 64 C-20.36 64.33 -17.72 64.66 -15 65 C-15 65.66 -15 66.32 -15 67 C-17.31 67.99 -19.62 68.98 -22 70 C-16.2041071 73.80872962 -9.82324871 74.17058122 -3 74 C0.17116117 73.31610947 3.05250549 72.34807889 6 71 C6.99 71.99 7.98 72.98 9 74 C8.278125 74.12375 7.55625 74.2475 6.8125 74.375 C4.04278106 74.9904931 1.6029646 75.88444374 -1 77 C-1 77.66 -1 78.32 -1 79 C-1.928125 78.7215625 -1.928125 78.7215625 -2.875 78.4375 C-5.04160178 77.76313824 -5.04160178 77.76313824 -7 79 C-6.505 77.515 -6.505 77.515 -6 76 C-8.97 75.67 -11.94 75.34 -15 75 C-15 75.66 -15 76.32 -15 77 C-17.31 77 -19.62 77 -22 77 C-19.03 77.495 -19.03 77.495 -16 78 C-13.45106876 86.40458408 -13.45106876 86.40458408 -14.79296875 90.3046875 C-15.9375 92.375 -15.9375 92.375 -17.15234375 94.2109375 C-18.19460404 95.99429699 -18.19460404 95.99429699 -17.7265625 98.1171875 C-16.87621205 100.32078382 -15.76811932 101.46250494 -14 103 C-13.2575 102.690625 -12.515 102.38125 -11.75 102.0625 C-9.49307824 101.1905075 -7.3549847 100.52332993 -5 100 C-4.01 101.32 -3.02 102.64 -2 104 C1.49844386 103.36610765 3.84086876 101.94822306 6.75 99.9375 C7.54921875 99.38964844 8.3484375 98.84179688 9.171875 98.27734375 C9.77515625 97.85582031 10.3784375 97.43429688 11 97 C10.69191406 96.41347656 10.38382812 95.82695313 10.06640625 95.22265625 C8.63916801 92.24793626 7.86676119 89.17812436 7 86 C6.67 85.01 6.34 84.02 6 83 C6.66 83 7.32 83 8 83 C8.495 81.515 8.495 81.515 9 80 C12.02486449 77.19919954 15.14166533 76.28611156 19 75 C20.35113205 74.02418241 21.68946944 73.02970259 23 72 C23.66 72 24.32 72 25 72 C24.835 73.2375 24.67 74.475 24.5 75.75 C23.84887571 81.50006943 23.91199586 87.2210614 24 93 C24.02578125 92.37351562 24.0515625 91.74703125 24.078125 91.1015625 C24.16320312 89.87566406 24.16320312 89.87566406 24.25 88.625 C24.29640625 87.81289062 24.3428125 87.00078125 24.390625 86.1640625 C25 84 25 84 27.046875 82.7109375 C27.69140625 82.47632812 28.3359375 82.24171875 29 82 C29.31382096 89.62468695 29.57245002 96.11972589 26 103 C24.515 103.495 24.515 103.495 23 104 C22.67 104.66 22.34 105.32 22 106 C21.67 106.66 21.34 107.32 21 108 C19.515 108.495 19.515 108.495 18 109 C19.98 109.33 21.96 109.66 24 110 C24 110.33 24 110.66 24 111 C23.38511719 111.03738281 22.77023438 111.07476562 22.13671875 111.11328125 C21.32847656 111.17902344 20.52023438 111.24476562 19.6875 111.3125 C18.88699219 111.37050781 18.08648437 111.42851563 17.26171875 111.48828125 C14.51199476 112.11041224 13.62160266 112.70190052 12 115 C11.28103188 117.65999022 11.28103188 117.65999022 10.9375 120.5625 C10.20833333 125.79166667 10.20833333 125.79166667 8 128 C5 128.25 5 128.25 2 128 C-0.76223278 125.23776722 -0.57856291 122.79293383 -1 119 C-1.99 118.67 -2.98 118.34 -4 118 C-4.66 120.97 -5.32 123.94 -6 127 C-7.98 127 -9.96 127 -12 127 C-12.24234375 126.43410156 -12.4846875 125.86820312 -12.734375 125.28515625 C-13.06953125 124.55167969 -13.4046875 123.81820312 -13.75 123.0625 C-14.23726562 121.96615234 -14.23726562 121.96615234 -14.734375 120.84765625 C-15.86169372 118.81193356 -15.86169372 118.81193356 -18.140625 118.24609375 C-19.06101562 118.12427734 -19.06101562 118.12427734 -20 118 C-19.505 118.45375 -19.01 118.9075 -18.5 119.375 C-17 121 -17 121 -17 123 C-24.95832585 122.96613478 -30.68192944 120.88435455 -37 116 C-37.66 115.01 -38.32 114.02 -39 113 C-38.73606499 116.43230448 -38.73606499 116.43230448 -38 120 C-36.515 120.99 -36.515 120.99 -35 122 C-35 122.66 -35 123.32 -35 124 C-36.41765314 123.96667909 -37.83447371 123.89697496 -39.25 123.8125 C-40.03890625 123.77769531 -40.8278125 123.74289063 -41.640625 123.70703125 C-45.0971482 122.67121883 -46.1446662 121.04804839 -48 118 C-48.609375 114.66796875 -48.609375 114.66796875 -48.75 111.1875 C-48.80671875 110.02605469 -48.8634375 108.86460938 -48.921875 107.66796875 C-48.96054687 106.34732422 -48.96054687 106.34732422 -49 105 C-49.60328125 105.48082031 -50.2065625 105.96164063 -50.828125 106.45703125 C-53.25047518 108.17794549 -55.08577697 108.5952468 -58 109 C-57.42137365 105.09427217 -55.47900791 102.98939189 -53 100 C-51.0645852 97.60943058 -51.0645852 97.60943058 -50 95 C-50.82299454 92.58201525 -50.82299454 92.58201525 -52 90 C-52.57710165 88.3242874 -53.11784768 86.63569185 -53.625 84.9375 C-53.88539062 84.10089844 -54.14578125 83.26429687 -54.4140625 82.40234375 C-56.14978709 72.32356965 -54.53057113 62.52902464 -52.65625 52.59985352 C-52.2503744 50.43949282 -51.86633799 48.27602989 -51.484375 46.11132812 C-47.79260506 25.74621336 -47.79260506 25.74621336 -42.375 19.875 C-39.29044625 16.14106651 -38.70049377 12.70480888 -38 8 C-30.89006342 7.2769556 -30.89006342 7.2769556 -28.35546875 9.3359375 C-27 11 -27 11 -25 14 C-24.071875 13.505 -23.14375 13.01 -22.1875 12.5 C-19 11 -19 11 -16 11 C-16.495 8.03 -16.495 8.03 -17 5 C-11.25565514 0.31382393 -7.47194273 -1.10873989 0 0 Z M-48 53 C-52.48417212 65.01117532 -55.31883175 73.87763668 -49.875 86.1640625 C-49.441875 87.07285156 -49.441875 87.07285156 -49 88 C-46.60370545 84.40555817 -46.74218669 81.85138348 -46.8046875 77.70703125 C-46.8075174 77.00100266 -46.81034729 76.29497406 -46.81326294 75.56755066 C-46.82444536 73.31569367 -46.8495458 71.06423648 -46.875 68.8125 C-46.88503233 67.28451096 -46.89415774 65.75651567 -46.90234375 64.22851562 C-46.92437828 60.48552337 -46.95889433 56.74282944 -47 53 C-47.33 53 -47.66 53 -48 53 Z " fill="#377DA4" transform="translate(58,0)"/>
<path d="M0 0 C7.4079115 -0.67686501 12.91666016 -0.60708831 18.9609375 4.01953125 C23.80169079 8.72118244 28.01281997 14.49744755 30 21 C29.625 23.3125 29.625 23.3125 29 25 C28.15801693 23.90241493 27.32669329 22.79664683 26.5 21.6875 C26.0359375 21.07261719 25.571875 20.45773438 25.09375 19.82421875 C24 18 24 18 24 15 C24 16.32 24 17.64 24 19 C24.495 20.485 24.495 20.485 25 22 C24.96389121 23.79432893 24.85152891 25.58781936 24.6875 27.375 C24.60886719 28.31085937 24.53023437 29.24671875 24.44921875 30.2109375 C23.99185241 33.05058593 23.16702554 35.38014675 22 38 C21.34 38 20.68 38 20 38 C19.67 38.99 19.34 39.98 19 41 C17.328125 42.1328125 17.328125 42.1328125 15.25 43.125 C14.57453125 43.45757812 13.8990625 43.79015625 13.203125 44.1328125 C11 45 11 45 6 46 C9.63 45.67 13.26 45.34 17 45 C16.10429689 49.47851553 15.74999027 50.77175056 13 54 C13.99 54.33 14.98 54.66 16 55 C12.75174014 61.72853828 12.75174014 61.72853828 9.46875 62.9140625 C8.4890625 63.14867187 7.509375 63.38328125 6.5 63.625 C2.64465574 64.52638875 2.64465574 64.52638875 -1 66 C-7.41799506 65.96156889 -13.54969193 65.68264059 -19 62 C-19.33 61.34 -19.66 60.68 -20 60 C-17.36 59.34 -14.72 58.68 -12 58 C-12 57.34 -12 56.68 -12 56 C-14.64 56 -17.28 56 -20 56 C-20.33 55.34 -20.66 54.68 -21 54 C-18.03 53.01 -15.06 52.02 -12 51 C-14.1346875 51.2475 -14.1346875 51.2475 -16.3125 51.5 C-18.91813299 51.80210238 -21.37165722 52 -24 52 C-25.53209716 50.46790284 -25.20614547 49.06809947 -25.25 46.9375 C-25.21866158 42.0487059 -23.94465541 38.45650199 -22 34 C-21.62875 34.515625 -21.2575 35.03125 -20.875 35.5625 C-19.2902229 37.62271023 -17.70177393 39.67057056 -16.0625 41.6875 C-15.57910156 42.28949219 -15.09570312 42.89148437 -14.59765625 43.51171875 C-12.76143613 45.22223187 -11.44792843 45.60346732 -9 46 C-9.33 44.68 -9.66 43.36 -10 42 C-7.36 43.32 -4.72 44.64 -2 46 C0.06825238 43.93174762 -0.32539184 39.86243137 0 37 C0.45974811 33.49442066 0.88240857 30.3527743 2 27 C1.34 27 0.68 27 0 27 C0.01160156 27.63808594 0.02320312 28.27617188 0.03515625 28.93359375 C0.04417969 29.75988281 0.05320312 30.58617188 0.0625 31.4375 C0.07410156 32.26121094 0.08570312 33.08492187 0.09765625 33.93359375 C0 36 0 36 -1 37 C-3.29581781 37.07188471 -5.57517069 36.99646432 -7.87109375 36.9375 C-10.05502216 36.85218862 -10.05502216 36.85218862 -12 38 C-12.66 37.01 -13.32 36.02 -14 35 C-15.99172182 34.30899447 -17.99161804 33.64097297 -20 33 C-22.22857221 28.54285558 -21.54243774 23.62948299 -20.0234375 19.06640625 C-16.22246376 10.28685648 -16.22246376 10.28685648 -12 8 C-9.08984375 7.671875 -9.08984375 7.671875 -5.9375 7.75 C-4.37322266 7.77320313 -4.37322266 7.77320313 -2.77734375 7.796875 C0 8 0 8 3 9 C0.08235 7.0549 -1.62537285 6.54723683 -5 6 C-4.34 4.68 -3.68 3.36 -3 2 C-0.69 2 1.62 2 4 2 C2.68 1.34 1.36 0.68 0 0 Z " fill="#76D3D1" transform="translate(55,9)"/>
<path d="M0 0 C2.15266842 2.15266842 2.93474462 3.84773744 4.125 6.625 C4.47820313 7.44226563 4.83140625 8.25953125 5.1953125 9.1015625 C5.46085937 9.72804688 5.72640625 10.35453125 6 11 C5.67 10.01 5.34 9.02 5 8 C10.75 9.875 10.75 9.875 13 11 C12.67 11.66 12.34 12.32 12 13 C11.34 12.67 10.68 12.34 10 12 C12.02633069 16.32371893 12.02633069 16.32371893 15 20 C16.98821313 20.39764263 18.98944339 20.73775349 21 21 C23.54893124 29.40458408 23.54893124 29.40458408 22.20703125 33.3046875 C21.0625 35.375 21.0625 35.375 19.84765625 37.2109375 C18.80539596 38.99429699 18.80539596 38.99429699 19.2734375 41.1171875 C20.12378795 43.32078382 21.23188068 44.46250494 23 46 C23.7425 45.690625 24.485 45.38125 25.25 45.0625 C27.50692176 44.1905075 29.6450153 43.52332993 32 43 C32.99 44.32 33.98 45.64 35 47 C38.49844386 46.36610765 40.84086876 44.94822306 43.75 42.9375 C44.94882813 42.11572266 44.94882813 42.11572266 46.171875 41.27734375 C46.77515625 40.85582031 47.3784375 40.43429688 48 40 C47.69191406 39.41347656 47.38382813 38.82695313 47.06640625 38.22265625 C45.63916801 35.24793626 44.86676119 32.17812436 44 29 C43.505 27.515 43.505 27.515 43 26 C43.66 26 44.32 26 45 26 C45.495 24.515 45.495 24.515 46 23 C49.02486449 20.19919954 52.14166533 19.28611156 56 18 C57.35113205 17.02418241 58.68946944 16.02970259 60 15 C60.66 15 61.32 15 62 15 C61.835 16.2375 61.67 17.475 61.5 18.75 C60.84887571 24.50006943 60.91199586 30.2210614 61 36 C61.03867188 35.06027344 61.03867188 35.06027344 61.078125 34.1015625 C61.16320312 32.87566406 61.16320312 32.87566406 61.25 31.625 C61.29640625 30.81289062 61.3428125 30.00078125 61.390625 29.1640625 C62 27 62 27 64.046875 25.7109375 C64.69140625 25.47632812 65.3359375 25.24171875 66 25 C66.31382096 32.62468695 66.57245002 39.11972589 63 46 C61.515 46.495 61.515 46.495 60 47 C59.505 47.99 59.505 47.99 59 49 C58.505 49.99 58.505 49.99 58 51 C57.01 51.33 56.02 51.66 55 52 C57.97 52.495 57.97 52.495 61 53 C61 53.33 61 53.66 61 54 C60.38511719 54.03738281 59.77023438 54.07476562 59.13671875 54.11328125 C57.92435547 54.21189453 57.92435547 54.21189453 56.6875 54.3125 C55.88699219 54.37050781 55.08648437 54.42851563 54.26171875 54.48828125 C51.51199476 55.11041224 50.62160266 55.70190052 49 58 C48.28103188 60.65999022 48.28103188 60.65999022 47.9375 63.5625 C47.20833333 68.79166667 47.20833333 68.79166667 45 71 C42 71.25 42 71.25 39 71 C36.23776722 68.23776722 36.42143709 65.79293383 36 62 C35.01 61.67 34.02 61.34 33 61 C32.34 63.97 31.68 66.94 31 70 C29.02 70 27.04 70 25 70 C24.75765625 69.43410156 24.5153125 68.86820312 24.265625 68.28515625 C23.93046875 67.55167969 23.5953125 66.81820312 23.25 66.0625 C22.76273438 64.96615234 22.76273438 64.96615234 22.265625 63.84765625 C21.13830628 61.81193356 21.13830628 61.81193356 18.859375 61.24609375 C18.24578125 61.16488281 17.6321875 61.08367187 17 61 C17.495 61.45375 17.99 61.9075 18.5 62.375 C20 64 20 64 20 66 C18.37419034 65.88601335 16.74932843 65.75844341 15.125 65.625 C14.22007813 65.55539063 13.31515625 65.48578125 12.3828125 65.4140625 C10 65 10 65 8 63 C9.98 63 11.96 63 14 63 C13.77094501 56.70098789 12.22743058 53.22212415 8.47265625 48.17578125 C3.8661145 41.36982965 2.56315528 32.08162732 3 24 C3.99 23.67 4.98 23.34 6 23 C6 21.02 6 19.04 6 17 C7.32 17 8.64 17 10 17 C9.52949219 16.61328125 9.05898438 16.2265625 8.57421875 15.828125 C1.78430858 10.14877985 1.78430858 10.14877985 0 7 C0 5.68 0 4.36 0 3 C-0.66 2.67 -1.32 2.34 -2 2 C-1.34 1.34 -0.68 0.68 0 0 Z " fill="#234D70" transform="translate(21,57)"/>
<path d="M0 0 C2.97 0 5.94 0 9 0 C9.3403125 1.2065625 9.3403125 1.2065625 9.6875 2.4375 C10.120625 3.283125 10.55375 4.12875 11 5 C11.77085938 5.14179688 12.54171875 5.28359375 13.3359375 5.4296875 C18.43978096 6.52229915 21.14008683 10.88082956 24 15 C28.11972132 23.11268198 31.95595447 31.73137773 32.625 40.875 C32.69976562 41.84179688 32.77453125 42.80859375 32.8515625 43.8046875 C32.90054688 44.52914062 32.94953125 45.25359375 33 46 C31.33333333 44.33333333 29.66666667 42.66666667 28 41 C28.15597656 42.28132813 28.31195313 43.56265625 28.47265625 44.8828125 C31.25385547 70.23584785 31.25385547 70.23584785 23 81 C22.43925781 81.7528125 21.87851563 82.505625 21.30078125 83.28125 C20.65689453 84.13203125 20.65689453 84.13203125 20 85 C20.03927612 84.17314697 20.03927612 84.17314697 20.0793457 83.32958984 C20.65625404 69.15955274 19.17580556 56.5810811 15.45898438 42.89746094 C15 41 15 41 15 39 C15.99 38.505 15.99 38.505 17 38 C14.36 37.67 11.72 37.34 9 37 C9.16371094 37.53109375 9.32742187 38.0621875 9.49609375 38.609375 C10.11356377 41.53876764 10.09501925 44.25822936 10.0625 47.25 C10.05347656 48.32765625 10.04445313 49.4053125 10.03515625 50.515625 C10.02355469 51.33546875 10.01195313 52.1553125 10 53 C9.34 53 8.68 53 8 53 C7.5978125 54.175625 7.5978125 54.175625 7.1875 55.375 C6 58 6 58 3 60 C3.33 57.69 3.66 55.38 4 53 C3.34 53.66 2.68 54.32 2 55 C0.94595055 51.01803543 1.15901344 48.01804691 2 44 C2.66 44 3.32 44 4 44 C4.39185886 41.29315955 4.76383568 38.58596184 5.125 35.875 C5.23714844 35.11445312 5.34929687 34.35390625 5.46484375 33.5703125 C6.07953869 28.81667161 5.94901133 25.51881887 4 21 C4.66 21 5.32 21 6 21 C7.65 23.97 9.3 26.94 11 30 C10.57789379 21.76892885 4.83497588 15.34872789 -1 10 C-1.66 9.34 -2.32 8.68 -3 8 C-2.01 5.36 -1.02 2.72 0 0 Z " fill="#74CECC" transform="translate(73,3)"/>
<path d="M0 0 C2.625 2.375 2.625 2.375 4 5 C4 5.66 4 6.32 4 7 C2.0509375 6.7215625 2.0509375 6.7215625 0.0625 6.4375 C-2.08575543 6.1018371 -2.08575543 6.1018371 -4 6 C-4.33 6.33 -4.66 6.66 -5 7 C-1.7 7.33 1.6 7.66 5 8 C4.34 8.66 3.68 9.32 3 10 C3.99 10.66 4.98 11.32 6 12 C5.34 12.33 4.68 12.66 4 13 C3.01 12.67 2.02 12.34 1 12 C-2.54187831 11.66661404 -2.54187831 11.66661404 -6 12 C-6.99 13.485 -6.99 13.485 -8 15 C-6.9171875 14.8453125 -6.9171875 14.8453125 -5.8125 14.6875 C-1.87958411 15.12449065 -0.53678077 17.10082197 2 20 C1.30003906 19.67644531 0.60007813 19.35289063 -0.12109375 19.01953125 C-3.27071046 17.90413103 -5.72995587 17.70013923 -9.0625 17.6875 C-10.59583984 17.66236328 -10.59583984 17.66236328 -12.16015625 17.63671875 C-15.4229123 18.0541002 -16.6847221 18.69494408 -19 21 C-23.04447292 27.69085643 -23.52304688 34.35770396 -23 42 C-21.906875 42.309375 -20.81375 42.61875 -19.6875 42.9375 C-17.44592006 43.58337897 -15.2130649 44.2623117 -13 45 C-11.43881572 45.06740865 -9.8749748 45.08514456 -8.3125 45.0625 C-6.889375 45.041875 -5.46625 45.02125 -4 45 C-3.67 42.03 -3.34 39.06 -3 36 C-2.34 36 -1.68 36 -1 36 C-0.505 37.98 -0.505 37.98 0 40 C-0.33 40 -0.66 40 -1 40 C-3.38156139 48.07033659 -3.38156139 48.07033659 -2 56 C-5.95820859 55.43454163 -8.6659053 54.19097652 -12 52 C-11.34 53.65 -10.68 55.3 -10 57 C-16.31380335 55.76803837 -19.28718988 51.90950098 -23 47 C-23.33 46.34 -23.66 45.68 -24 45 C-24.99 46.98 -25.98 48.96 -27 51 C-27.99 51 -28.98 51 -30 51 C-30.66 52.32 -31.32 53.64 -32 55 C-35.93661212 48.30775939 -38.90637677 43.03742929 -38 35 C-37.66742188 33.79988281 -37.33484375 32.59976563 -36.9921875 31.36328125 C-35.74058217 26.55633455 -35.77636162 21.9395068 -35.875 17 C-35.88402344 16.12988281 -35.89304687 15.25976562 -35.90234375 14.36328125 C-35.92565381 12.2420658 -35.96151421 10.12099438 -36 8 C-30.47045952 7.63238512 -30.47045952 7.63238512 -28.3203125 9.3125 C-27.21354167 10.875 -26.10677083 12.4375 -25 14 C-23.6078125 13.2575 -23.6078125 13.2575 -22.1875 12.5 C-19 11 -19 11 -16 11 C-16.33 9.02 -16.66 7.04 -17 5 C-11.25565514 0.31382393 -7.47194273 -1.10873989 0 0 Z " fill="#51A3B9" transform="translate(58,0)"/>
<path d="M0 0 C1 2 1 2 0.2578125 4.42578125 C-0.11601562 5.37839844 -0.48984375 6.33101562 -0.875 7.3125 C-2.92807081 12.57439127 -4.14705979 17.14699412 -4.0625 22.8125 C-4.04896484 23.99779297 -4.04896484 23.99779297 -4.03515625 25.20703125 C-4.02355469 25.79871094 -4.01195312 26.39039062 -4 27 C-3.34 27 -2.68 27 -2 27 C-2 35.58 -2 44.16 -2 53 C-2.33 53 -2.66 53 -3 53 C-3.33 46.73 -3.66 40.46 -4 34 C-8.13184234 45.10432628 -9.89304997 52.99063756 -5 64 C-3.50256881 62.50256881 -3.66797307 61.01175761 -3.4375 58.9375 C-3.2209375 56.9884375 -3.2209375 56.9884375 -3 55 C-2.34 56.32 -1.68 57.64 -1 59 C-0.34 58.34 0.32 57.68 1 57 C1.59748047 58.12148437 1.59748047 58.12148437 2.20703125 59.265625 C2.73683594 60.25046875 3.26664063 61.2353125 3.8125 62.25 C4.33457031 63.22453125 4.85664063 64.1990625 5.39453125 65.203125 C6.78965188 67.63355412 8.26195961 69.80787699 10 72 C10 69.69 10 67.38 10 65 C11.62123837 67.91025576 12.3003222 70.33806939 12.75 73.625 C13.68783664 78.75284871 15.8088263 82.39188553 18.59765625 86.7421875 C20.68563005 90.10388348 22.39018208 93.18352209 21.53515625 97.1640625 C21.35855469 97.76992187 21.18195312 98.37578125 21 99 C10.27994902 97.41801189 10.27994902 97.41801189 6 93 C5.505 92.01 5.505 92.01 5 91 C5.26393501 94.43230448 5.26393501 94.43230448 6 98 C7.485 98.99 7.485 98.99 9 100 C9 100.66 9 101.32 9 102 C7.58234686 101.96667909 6.16552629 101.89697496 4.75 101.8125 C3.96109375 101.77769531 3.1721875 101.74289063 2.359375 101.70703125 C-1.0971482 100.67121883 -2.1446662 99.04804839 -4 96 C-4.609375 92.66796875 -4.609375 92.66796875 -4.75 89.1875 C-4.80671875 88.02605469 -4.8634375 86.86460938 -4.921875 85.66796875 C-4.96054687 84.34732422 -4.96054687 84.34732422 -5 83 C-5.60328125 83.48082031 -6.2065625 83.96164063 -6.828125 84.45703125 C-9.25047518 86.17794549 -11.08577697 86.5952468 -14 87 C-13.42137365 83.09427217 -11.47900791 80.98939189 -9 78 C-7.0645852 75.60943058 -7.0645852 75.60943058 -6 73 C-6.82299454 70.58201525 -6.82299454 70.58201525 -8 68 C-8.57710165 66.3242874 -9.11784768 64.63569185 -9.625 62.9375 C-9.88539062 62.10089844 -10.14578125 61.26429687 -10.4140625 60.40234375 C-12.14978709 50.32356965 -10.53057113 40.52902464 -8.65625 30.59985352 C-8.2503744 28.43949282 -7.86633799 26.27602989 -7.484375 24.11132812 C-3.79936192 3.79936192 -3.79936192 3.79936192 0 0 Z " fill="#2E6894" transform="translate(14,22)"/>
<path d="M0 0 C-0.165 1.2375 -0.33 2.475 -0.5 3.75 C-1.15112429 9.50006943 -1.08800414 15.2210614 -1 21 C-0.96132812 20.06027344 -0.96132812 20.06027344 -0.921875 19.1015625 C-0.83679688 17.87566406 -0.83679688 17.87566406 -0.75 16.625 C-0.70359375 15.81289062 -0.6571875 15.00078125 -0.609375 14.1640625 C0 12 0 12 2.046875 10.7109375 C3.01367188 10.35902344 3.01367188 10.35902344 4 10 C4.31382096 17.62468695 4.57245002 24.11972589 1 31 C0.01 31.33 -0.98 31.66 -2 32 C-2.495 32.99 -2.495 32.99 -3 34 C-3.495 34.99 -3.495 34.99 -4 36 C-4.99 36.33 -5.98 36.66 -7 37 C-4.03 37.495 -4.03 37.495 -1 38 C-1 38.33 -1 38.66 -1 39 C-3.97 39 -6.94 39 -10 39 C-10 38.01 -10 37.02 -10 36 C-10.680625 36.45375 -11.36125 36.9075 -12.0625 37.375 C-20.49548908 42.04005779 -30.80738771 42.44833536 -40.08984375 40.27734375 C-44.14976121 38.80480394 -46.45437643 37.70610109 -49.125 34.25 C-49.41375 33.5075 -49.7025 32.765 -50 32 C-48.35 30.35 -46.7 28.7 -45 27 C-42.33333333 28.33333333 -39.66666667 29.66666667 -37 31 C-36.01 30.34 -35.02 29.68 -34 29 C-31.8125 28.375 -31.8125 28.375 -30 28 C-29.01 29.32 -28.02 30.64 -27 32 C-23.50155614 31.36610765 -21.15913124 29.94822306 -18.25 27.9375 C-17.05117187 27.11572266 -17.05117187 27.11572266 -15.828125 26.27734375 C-15.22484375 25.85582031 -14.6215625 25.43429688 -14 25 C-14.30808594 24.41347656 -14.61617187 23.82695313 -14.93359375 23.22265625 C-16.36083199 20.24793626 -17.13323881 17.17812436 -18 14 C-18.33 13.01 -18.66 12.02 -19 11 C-18.34 11 -17.68 11 -17 11 C-16.67 10.01 -16.34 9.02 -16 8 C-12.97513551 5.19919954 -9.85833467 4.28611156 -6 3 C-1.84615385 0 -1.84615385 0 0 0 Z " fill="#232F3D" transform="translate(83,72)"/>
<path d="M0 0 C0.66 0.70125 1.32 1.4025 2 2.125 C5.34985941 5.49416695 9.15652564 8.22468725 13 11 C12.67 11.99 12.34 12.98 12 14 C8.4375 15.1875 8.4375 15.1875 5 16 C8.63 15.67 12.26 15.34 16 15 C15.10429689 19.47851553 14.74999027 20.77175056 12 24 C12.99 24.33 13.98 24.66 15 25 C11.75174014 31.72853828 11.75174014 31.72853828 8.46875 32.9140625 C7.4890625 33.14867187 6.509375 33.38328125 5.5 33.625 C1.64465574 34.52638875 1.64465574 34.52638875 -2 36 C-8.41799506 35.96156889 -14.54969193 35.68264059 -20 32 C-20.33 31.34 -20.66 30.68 -21 30 C-18.36 29.34 -15.72 28.68 -13 28 C-13 27.34 -13 26.68 -13 26 C-15.64 26 -18.28 26 -21 26 C-21.33 25.34 -21.66 24.68 -22 24 C-19.03 23.01 -16.06 22.02 -13 21 C-15.1346875 21.2475 -15.1346875 21.2475 -17.3125 21.5 C-19.91813299 21.80210238 -22.37165722 22 -25 22 C-26.53209716 20.46790284 -26.20614547 19.06809947 -26.25 16.9375 C-26.21866158 12.0487059 -24.94465541 8.45650199 -23 4 C-22.62875 4.515625 -22.2575 5.03125 -21.875 5.5625 C-20.2902229 7.62271023 -18.70177393 9.67057056 -17.0625 11.6875 C-16.33740234 12.59048828 -16.33740234 12.59048828 -15.59765625 13.51171875 C-13.76143613 15.22223187 -12.44792843 15.60346732 -10 16 C-10.33 14.68 -10.66 13.36 -11 12 C-8.36 13.32 -5.72 14.64 -3 16 C-1.18743285 14.18743285 -1.53048748 11.64309629 -1.25390625 9.2109375 C-0.90014905 6.13052866 -0.44742559 3.06806122 0 0 Z " fill="#F8DCCE" transform="translate(56,39)"/>
<path d="M0 0 C2.45376788 1.63584525 3.24694017 2.76438229 4.25 5.5 C2.96034824 6.87562854 1.62310707 8.20766393 0.25 9.5 C-0.41 9.5 -1.07 9.5 -1.75 9.5 C-1.069375 10.2734375 -1.069375 10.2734375 -0.375 11.0625 C2.45380072 15.30570108 3.25 19.45303684 3.25 24.5 C1.203125 26.45703125 1.203125 26.45703125 -1.5 28.3125 C-2.82257812 29.25029297 -2.82257812 29.25029297 -4.171875 30.20703125 C-6.75 31.5 -6.75 31.5 -8.96875 31.296875 C-11.05041644 30.36560317 -12.26203688 29.21115759 -13.75 27.5 C-14.4925 27.83 -15.235 28.16 -16 28.5 C-18.75 29.5 -18.75 29.5 -22.75 29.5 C-25.0625 27.8125 -25.0625 27.8125 -26.75 25.5 C-26.66597631 22.30709964 -25.77732718 20.54519495 -24.125 17.8125 C-22.20380217 13.18415977 -22.95376362 9.35416398 -23.75 4.5 C-19.91674383 1.79417212 -17.42461851 1.17386382 -12.75 1.5 C-12.75 2.16 -12.75 2.82 -12.75 3.5 C-11.43 4.16 -10.11 4.82 -8.75 5.5 C-8.75 4.84 -8.75 4.18 -8.75 3.5 C-3.75414938 -0.68257261 -3.75414938 -0.68257261 0 0 Z " fill="#758598" transform="translate(65.75,73.5)"/>
<path d="M0 0 C3.3 0 6.6 0 10 0 C10.495 0.99 10.495 0.99 11 2 C9.35 2 7.7 2 6 2 C6.41572266 3.41152344 6.41572266 3.41152344 6.83984375 4.8515625 C7.20207031 6.09679688 7.56429687 7.34203125 7.9375 8.625 C8.29714844 9.85476562 8.65679687 11.08453125 9.02734375 12.3515625 C10.4784221 17.7945632 11.1250665 22.74401507 11.0625 28.375 C11.05347656 29.43460938 11.04445312 30.49421875 11.03515625 31.5859375 C11.02355469 32.38257813 11.01195312 33.17921875 11 34 C10.01 34 9.02 34 8 34 C8.33 32.35 8.66 30.7 9 29 C5.19753525 31.94303098 5.19753525 31.94303098 3.66796875 36.3359375 C3.68563331 38.5758033 3.78149098 40.77120799 4 43 C2.515 43.495 2.515 43.495 1 44 C1.01160156 44.556875 1.02320312 45.11375 1.03515625 45.6875 C1.09676433 50.89778343 0.74999344 55.8437951 0 61 C-0.33 61 -0.66 61 -1 61 C-1.18307567 40.23108218 -1.18307567 40.23108218 -0.12109375 31.80078125 C-0.08113281 31.20652344 -0.04117188 30.61226562 0 30 C-0.33 29.67 -0.66 29.34 -1 29 C-2.11375 30.4540625 -2.11375 30.4540625 -3.25 31.9375 C-4.91164067 33.93335168 -5.77061555 34.90169238 -8.1875 35.9375 C-10 36 -10 36 -12 35 C-12.33 35.66 -12.66 36.32 -13 37 C-13.66 36.01 -14.32 35.02 -15 34 C-13.68 32.68 -12.36 31.36 -11 30 C-11.66 30 -12.32 30 -13 30 C-13.66 29.67 -14.32 29.34 -15 29 C-13.68 27.35 -12.36 25.7 -11 24 C-12.32 23.67 -13.64 23.34 -15 23 C-14.360625 22.071875 -13.72125 21.14375 -13.0625 20.1875 C-10.91377907 17.15780057 -10.91377907 17.15780057 -10 14 C-10.680625 14.33 -11.36125 14.66 -12.0625 15 C-15.50840238 16.17307315 -18.38397422 16.14180493 -22 16 C-21 14 -21 14 -19.14453125 13.25390625 C-18.37496094 13.02574219 -17.60539062 12.79757813 -16.8125 12.5625 C-12.99369166 11.36683477 -9.53349135 9.90264919 -6 8 C-6.33 10.64 -6.66 13.28 -7 16 C-6.01 15.67 -5.02 15.34 -4 15 C-4.33 17.31 -4.66 19.62 -5 22 C-4.38125 21.01 -3.7625 20.02 -3.125 19 C-2.42375 18.01 -1.7225 17.02 -1 16 C-0.34 16 0.32 16 1 16 C0.67 10.72 0.34 5.44 0 0 Z " fill="#306A90" transform="translate(82,40)"/>
<path d="M0 0 C0.66 0 1.32 0 2 0 C2.22745015 3.37399376 2.42851745 6.74907252 2.625 10.125 C2.68945312 11.07632812 2.75390625 12.02765625 2.8203125 13.0078125 C3.10910707 18.20611481 3.00535145 22.09886119 1 27 C0.33992175 33.71079555 1.93524731 38.06742652 5 44 C5.33 44.66 5.66 45.32 6 46 C6.33 43.69 6.66 41.38 7 39 C7.33 40.32 7.66 41.64 8 43 C8.66 43 9.32 43 10 43 C10.33 45.97 10.66 48.94 11 52 C13.77996107 52 16.42492567 51.78702071 19.1875 51.5 C20.08855469 51.4071875 20.98960938 51.314375 21.91796875 51.21875 C22.94857422 51.11046875 22.94857422 51.11046875 24 51 C21.28922757 53.97126708 18.86848614 54.88243734 15 56 C17.64 56.33 20.28 56.66 23 57 C23 57.66 23 58.32 23 59 C20.69 59.99 18.38 60.98 16 62 C21.7958929 65.80872962 28.17675129 66.17058122 35 66 C38.17116117 65.31610947 41.05250549 64.34807889 44 63 C44.99 63.99 45.98 64.98 47 66 C46.278125 66.12375 45.55625 66.2475 44.8125 66.375 C42.04278106 66.9904931 39.6029646 67.88444374 37 69 C37 69.66 37 70.32 37 71 C36.071875 70.7215625 36.071875 70.7215625 35.125 70.4375 C32.95839822 69.76313824 32.95839822 69.76313824 31 71 C31.495 69.515 31.495 69.515 32 68 C29.03 67.67 26.06 67.34 23 67 C23 67.66 23 68.32 23 69 C19.92561638 68.92910226 16.99085301 68.74241032 14 68 C11.93095946 65.55477027 11 64.20908881 11 61 C11.33 60.67 11.66 60.34 12 60 C10.68 59.67 9.36 59.34 8 59 C7.67 59.66 7.34 60.32 7 61 C4.13546142 57.58983503 2.65296434 54.09305456 1 50 C0.401875 50.825 -0.19625 51.65 -0.8125 52.5 C-1.534375 53.325 -2.25625 54.15 -3 55 C-3.99 55 -4.98 55 -6 55 C-5.86722656 54.44054688 -5.73445312 53.88109375 -5.59765625 53.3046875 C-4.18195428 46.87719387 -3.59940313 40.57257663 -3.24609375 34.00390625 C-3 31 -3 31 -2 28 C-1.94202933 26.62358592 -1.9384332 25.24439667 -1.97265625 23.8671875 C-1.98490234 23.06023438 -1.99714844 22.25328125 -2.00976562 21.421875 C-2.04443859 19.74729919 -2.08337731 18.07280529 -2.12695312 16.3984375 C-2.2040852 10.66344115 -1.48682709 5.53870191 0 0 Z " fill="#3E7FA1" transform="translate(20,8)"/>
<path d="M0 0 C10.02331475 6.86061835 10.02331475 6.86061835 12 12 C10.73732674 19.14312299 6.3731152 25.26212994 1 30 C0.34 30 -0.32 30 -1 30 C-1 27.03 -1 24.06 -1 21 C-1.79664063 21.63228516 -1.79664063 21.63228516 -2.609375 22.27734375 C-3.31578125 22.82519531 -4.0221875 23.37304688 -4.75 23.9375 C-5.44609375 24.48277344 -6.1421875 25.02804688 -6.859375 25.58984375 C-11.0878795 28.37540967 -15.02386977 28.09569481 -20 28 C-19.71125 27.44570312 -19.4225 26.89140625 -19.125 26.3203125 C-17.5354263 23.04181673 -16.29300311 19.64642226 -15 16.2421875 C-13.57943194 13.05700755 -12.29998427 12.13694934 -9.125 10.6875 C-4.41004914 8.14142654 -2.27905923 4.70805657 0 0 Z " fill="#2D648E" transform="translate(96,96)"/>
<path d="M0 0 C2.15266842 2.15266842 2.93474462 3.84773744 4.125 6.625 C4.47820313 7.44226563 4.83140625 8.25953125 5.1953125 9.1015625 C5.46085937 9.72804688 5.72640625 10.35453125 6 11 C5.67 10.01 5.34 9.02 5 8 C10.75 9.875 10.75 9.875 13 11 C12.67 11.66 12.34 12.32 12 13 C11.34 12.67 10.68 12.34 10 12 C12.02633069 16.32371893 12.02633069 16.32371893 15 20 C16.98821313 20.39764263 18.98944339 20.73775349 21 21 C22.41140654 25.30613842 23.62874534 29.15867437 22.125 33.5625 C20.1756682 37.0898623 18.14239229 40.41698644 15 43 C12.3125 42.6875 12.3125 42.6875 10 42 C6.88092557 34.4808027 5.22134723 25.92628514 8 18 C8.66 17.67 9.32 17.34 10 17 C9.52949219 16.61328125 9.05898438 16.2265625 8.57421875 15.828125 C1.78430858 10.14877985 1.78430858 10.14877985 0 7 C0 5.68 0 4.36 0 3 C-0.66 2.67 -1.32 2.34 -2 2 C-1.34 1.34 -0.68 0.68 0 0 Z " fill="#202834" transform="translate(21,57)"/>
<path d="M0 0 C0.99 0 1.98 0 3 0 C5.91592692 6.34642919 5.3344252 13.38012269 2.953125 19.83984375 C2.63859375 20.55269531 2.3240625 21.26554687 2 22 C1.34 22 0.68 22 0 22 C-0.33 22.99 -0.66 23.98 -1 25 C-3.5625 26.1875 -3.5625 26.1875 -6 27 C-6 26.34 -6 25.68 -6 25 C-7.051875 24.690625 -7.051875 24.690625 -8.125 24.375 C-11.79573098 22.61943301 -14.70769065 20.39493916 -17 17 C-17.671875 13.796875 -17.671875 13.796875 -18 11 C-16.80503906 10.56300781 -16.80503906 10.56300781 -15.5859375 10.1171875 C-8.95955538 7.55369661 -4.74859846 5.2356342 0 0 Z " fill="#76CDCC" transform="translate(75,25)"/>
<path d="M0 0 C7.4079115 -0.67686501 12.91666016 -0.60708831 18.9609375 4.01953125 C23.80169079 8.72118244 28.01281997 14.49744755 30 21 C29.625 23.3125 29.625 23.3125 29 25 C28.15801693 23.90241493 27.32669329 22.79664683 26.5 21.6875 C26.0359375 21.07261719 25.571875 20.45773438 25.09375 19.82421875 C24 18 24 18 24 15 C23.4225 14.938125 22.845 14.87625 22.25 14.8125 C19.11309013 13.67972699 17.90832496 11.65802405 16 9 C13.54765115 9.98093954 12.2190732 10.68703828 10.6875 12.875 C9.8867346 15.35009306 10.13674155 16.58287634 11 19 C9.68 18.01 8.36 17.02 7 16 C4.69 17.98 2.38 19.96 0 22 C-0.64690922 20.3962669 -1.29248764 18.79199694 -1.9375 17.1875 C-2.29714844 16.29417969 -2.65679687 15.40085937 -3.02734375 14.48046875 C-3.73613486 12.6729091 -4.3860247 10.84192591 -5 9 C-4.34 9 -3.68 9 -3 9 C-3 9.66 -3 10.32 -3 11 C-2.01 10.67 -1.02 10.34 0 10 C2.1875 10.9375 2.1875 10.9375 4 12 C3.24849977 8.72226496 3.24849977 8.72226496 0 7 C-1.65549531 6.61500109 -3.3222433 6.27206865 -5 6 C-4.34 4.68 -3.68 3.36 -3 2 C-0.69 2 1.62 2 4 2 C2.68 1.34 1.36 0.68 0 0 Z " fill="#76CFCE" transform="translate(55,9)"/>
<path d="M0 0 C0.66 0 1.32 0 2 0 C2.0269501 2.93756119 2.04681474 5.87487555 2.0625 8.8125 C2.07087891 9.64587891 2.07925781 10.47925781 2.08789062 11.33789062 C2.09111328 12.14033203 2.09433594 12.94277344 2.09765625 13.76953125 C2.10289307 14.50792236 2.10812988 15.24631348 2.11352539 16.00708008 C2 18 2 18 1 21 C0.84684548 23.2065595 0.72609084 25.41544309 0.625 27.625 C0.24587871 33.61635938 -0.79383181 38.43661935 -3 44 C-4.78409802 40.93753253 -5.22880021 38.77920727 -5.125 35.25 C-5.10695313 34.45078125 -5.08890625 33.6515625 -5.0703125 32.828125 C-5.03550781 31.92320313 -5.03550781 31.92320313 -5 31 C-5.66 31 -6.32 31 -7 31 C-10.03928306 24.92143388 -7.03483538 18.16760558 -5.0859375 12.17578125 C-1.40186916 1.40186916 -1.40186916 1.40186916 0 0 Z " fill="#3E89AC" transform="translate(17,18)"/>
<path d="M0 0 C2.66666667 1.33333333 5.33333333 2.66666667 8 4 C8.99 3.34 9.98 2.68 11 2 C13.1875 1.375 13.1875 1.375 15 1 C15.4125 1.66 15.825 2.32 16.25 3 C16.8275 3.66 17.405 4.32 18 5 C19.32 5 20.64 5 22 5 C22 6.32 22 7.64 22 9 C22.30404678 10.67225729 22.63128912 12.34080104 23 14 C5.51409339 14.83932352 5.51409339 14.83932352 -2 10 C-4.125 7.25 -4.125 7.25 -5 5 C-3.35 3.35 -1.7 1.7 0 0 Z " fill="#252D39" transform="translate(38,99)"/>
<path d="M0 0 C0.66 0.33 1.32 0.66 2 1 C1.38125 1.86625 0.7625 2.7325 0.125 3.625 C-2.56619118 7.89924481 -3.7143099 11.97487671 -5.0625 16.8125 C-6 20 -6 20 -7 21 C-9.9375 21.1875 -9.9375 21.1875 -13 21 C-15 19 -15 19 -15.1953125 16.6171875 C-15.16050781 15.25980469 -15.16050781 15.25980469 -15.125 13.875 C-15.10695313 12.96492188 -15.08890625 12.05484375 -15.0703125 11.1171875 C-15.03550781 10.06917969 -15.03550781 10.06917969 -15 9 C-16.98 9 -18.96 9 -21 9 C-21 9.66 -21 10.32 -21 11 C-23.64 11 -26.28 11 -29 11 C-29.33 10.34 -29.66 9.68 -30 9 C-26.15466494 6.32529277 -23.52884213 5.65969326 -18.875 5.5625 C-12.97573124 5.24670771 -4.44546445 4.44546445 0 0 Z " fill="#8B8E97" transform="translate(73,107)"/>
<path d="M0 0 C0.37125 0.515625 0.7425 1.03125 1.125 1.5625 C2.7097771 3.62271023 4.29822607 5.67057056 5.9375 7.6875 C6.66259766 8.59048828 6.66259766 8.59048828 7.40234375 9.51171875 C9.23856387 11.22223187 10.55207157 11.60346732 13 12 C12.67 10.68 12.34 9.36 12 8 C13.65581725 8.70620155 15.29951386 9.44087238 16.9375 10.1875 C17.85402344 10.59355469 18.77054688 10.99960937 19.71484375 11.41796875 C22 13 22 13 22.81640625 15.67578125 C22.87699219 16.44277344 22.93757813 17.20976563 23 18 C21.576875 18.8971875 21.576875 18.8971875 20.125 19.8125 C16.86035803 21.81562526 16.86035803 21.81562526 15 25 C14.67 22.69 14.34 20.38 14 18 C13.34 18 12.68 18 12 18 C12 17.01 12 16.02 12 15 C11.24074219 15.2165625 10.48148438 15.433125 9.69921875 15.65625 C8.70535156 15.9346875 7.71148437 16.213125 6.6875 16.5 C5.70136719 16.7784375 4.71523438 17.056875 3.69921875 17.34375 C1 18 1 18 -2 18 C-3.53209716 16.46790284 -3.20614547 15.06809947 -3.25 12.9375 C-3.21866158 8.0487059 -1.94465541 4.45650199 0 0 Z " fill="#F7DFD0" transform="translate(33,43)"/>
<path d="M0 0 C1 2 1 2 0.2578125 4.42578125 C-0.11601562 5.37839844 -0.48984375 6.33101562 -0.875 7.3125 C-2.92807081 12.57439127 -4.14705979 17.14699412 -4.0625 22.8125 C-4.04896484 23.99779297 -4.04896484 23.99779297 -4.03515625 25.20703125 C-4.02355469 25.79871094 -4.01195312 26.39039062 -4 27 C-3.34 27 -2.68 27 -2 27 C-2 35.58 -2 44.16 -2 53 C-2.33 53 -2.66 53 -3 53 C-3.33 46.73 -3.66 40.46 -4 34 C-8.13184234 45.10432628 -9.89304997 52.99063756 -5 64 C-3.50256881 62.50256881 -3.66797307 61.01175761 -3.4375 58.9375 C-3.2209375 56.9884375 -3.2209375 56.9884375 -3 55 C-2.67 55 -2.34 55 -2 55 C-2 57.31 -2 59.62 -2 62 C-1.34 62 -0.68 62 0 62 C-0.60698743 66.12751449 -2.03810791 69.3321148 -4 73 C-9.78965544 67.21034456 -11.03769546 59.56703171 -11.25 51.6640625 C-11.16833552 44.51014383 -9.97876407 37.60583999 -8.65625 30.59985352 C-8.2503744 28.43949282 -7.86633799 26.27602989 -7.484375 24.11132812 C-3.79936192 3.79936192 -3.79936192 3.79936192 0 0 Z " fill="#324D5B" transform="translate(14,22)"/>
<path d="M0 0 C2.97 0 5.94 0 9 0 C9.268125 0.804375 9.53625 1.60875 9.8125 2.4375 C10.204375 3.283125 10.59625 4.12875 11 5 C11.99 5.33 12.98 5.66 14 6 C13.01 6.33 12.02 6.66 11 7 C11.32742187 7.80695312 11.65484375 8.61390625 11.9921875 9.4453125 C13.20401292 13.71958047 13.22214556 17.46608628 13.125 21.875 C13.11597656 22.65875 13.10695313 23.4425 13.09765625 24.25 C13.07428063 26.16680055 13.03841653 28.08344191 13 30 C11.26763052 27.40144578 9.96469732 24.93239121 8.625 22.125 C5.63560359 16.11124348 2.39886263 12.04914697 -3 8 C-2.01 5.36 -1.02 2.72 0 0 Z " fill="#3B4655" transform="translate(73,3)"/>
<path d="M0 0 C-0.2165625 0.7734375 -0.2165625 0.7734375 -0.4375 1.5625 C-1.64579469 6.79844365 -2.72447419 11.82657743 -1 17 C-2.65 17 -4.3 17 -6 17 C-6.08004482 20.5219721 -6.04005702 23.61981469 -5 27 C-6.98 27.99 -6.98 27.99 -9 29 C-11.5625 26.8125 -11.5625 26.8125 -14 24 C-14 20.7574773 -13.04952497 19.08190668 -11.375 16.3125 C-9.45380217 11.68415977 -10.20376362 7.85416398 -11 3 C-7.16674383 0.29417212 -4.67461851 -0.32613618 0 0 Z " fill="#485D73" transform="translate(53,75)"/>
<path d="M0 0 C0.66 0 1.32 0 2 0 C2 0.99 2 1.98 2 3 C2.66 3 3.32 3 4 3 C4.66 4.32 5.32 5.64 6 7 C6.9075 6.319375 7.815 5.63875 8.75 4.9375 C12 3 12 3 14.25 3.125 C16 4 16 4 18 6 C17.77022157 8.37437707 17.14983321 9.77919317 15.8125 11.75 C13.21312784 13.54267046 11.07660784 13.20510719 8 13 C8 12.34 8 11.68 8 11 C4.75016865 12.08784968 4.75016865 12.08784968 2 14 C5.63 14.33 9.26 14.66 13 15 C11 17 11 17 8.390625 17.08203125 C-2.31885792 16.16293383 -2.31885792 16.16293383 -7 13 C-7.33 12.34 -7.66 11.68 -8 11 C-5.36 10.34 -2.72 9.68 0 9 C0 8.34 0 7.68 0 7 C-2.64 7 -5.28 7 -8 7 C-8.33 6.34 -8.66 5.68 -9 5 C-6.03 4.01 -3.06 3.02 0 2 C0 1.34 0 0.68 0 0 Z " fill="#F5D1C3" transform="translate(43,58)"/>
<path d="M0 0 C0.66 0 1.32 0 2 0 C3.65 2.97 5.3 5.94 7 9 C7.99 8.67 8.98 8.34 10 8 C11 11 12 14 13 17 C10.36 16.67 7.72 16.34 5 16 C5.16371094 16.53109375 5.32742187 17.0621875 5.49609375 17.609375 C6.11356377 20.53876764 6.09501925 23.25822936 6.0625 26.25 C6.05347656 27.32765625 6.04445313 28.4053125 6.03515625 29.515625 C6.02355469 30.33546875 6.01195313 31.1553125 6 32 C5.34 32 4.68 32 4 32 C3.731875 32.78375 3.46375 33.5675 3.1875 34.375 C2 37 2 37 -1 39 C-0.67 36.69 -0.34 34.38 0 32 C-0.66 32.66 -1.32 33.32 -2 34 C-3.05404945 30.01803543 -2.84098656 27.01804691 -2 23 C-1.34 23 -0.68 23 0 23 C0.39185886 20.29315955 0.76383568 17.58596184 1.125 14.875 C1.23714844 14.11445312 1.34929687 13.35390625 1.46484375 12.5703125 C2.07953869 7.81667161 1.94901133 4.51881887 0 0 Z " fill="#4EA6BD" transform="translate(77,24)"/>
<path d="M0 0 C3.7952131 1.49097658 5.61042731 3.75700849 8 7 C5.24548928 12.50902144 -1.07747962 16.08213801 -6.578125 18.38671875 C-10.79373479 19.45421994 -14.78040936 18.8104433 -19 18 C-15.22975157 14.07265789 -11.11529949 10.55593839 -7 7 C-6.01 7.66 -5.02 8.32 -4 9 C-4.268125 8.443125 -4.53625 7.88625 -4.8125 7.3125 C-4.874375 6.549375 -4.93625 5.78625 -5 5 C-2.5625 2.25 -2.5625 2.25 0 0 Z " fill="#C6DBCA" transform="translate(69,17)"/>
<path d="M0 0 C2.625 2.375 2.625 2.375 4 5 C4 5.66 4 6.32 4 7 C2.700625 6.814375 1.40125 6.62875 0.0625 6.4375 C-2.08575543 6.1018371 -2.08575543 6.1018371 -4 6 C-4.33 6.33 -4.66 6.66 -5 7 C-1.7 7.33 1.6 7.66 5 8 C4.34 8.66 3.68 9.32 3 10 C3.99 10.66 4.98 11.32 6 12 C5.01 12.495 5.01 12.495 4 13 C3.01 12.67 2.02 12.34 1 12 C-2.54178598 11.74996036 -2.54178598 11.74996036 -6 12 C-6.66 12.66 -7.32 13.32 -8 14 C-11.19230558 13.83198392 -12.79286808 13.15262352 -15.375 11.25 C-17 9 -17 9 -17.125 6.5 C-14.00692252 -0.42906106 -6.79085776 -1.38375355 0 0 Z " fill="#6DC1C1" transform="translate(58,0)"/>
<path d="M0 0 C0.66 0.66 1.32 1.32 2 2 C3.2375 2.495 3.2375 2.495 4.5 3 C7 4 7 4 9 6 C9 6.99 9 7.98 9 9 C7.02 9.99 7.02 9.99 5 11 C7.97 11.495 7.97 11.495 11 12 C11 12.33 11 12.66 11 13 C8.03 13 5.06 13 2 13 C2 12.01 2 11.02 2 10 C1.319375 10.474375 0.63875 10.94875 -0.0625 11.4375 C-3.41841956 13.2225636 -6.24161481 13.63153086 -10 14 C-10.99 12.02 -11.98 10.04 -13 8 C-12.34 8 -11.68 8 -11 8 C-11 7.01 -11 6.02 -11 5 C-9.609375 3.61328125 -9.609375 3.61328125 -7.75 2.3125 C-7.14671875 1.87550781 -6.5434375 1.43851562 -5.921875 0.98828125 C-4 0 -4 0 0 0 Z " fill="#343C4B" transform="translate(71,98)"/>
<path d="M0 0 C-0.66 6.93 -1.32 13.86 -2 21 C-10 19 -10 19 -12 16.375 C-13.20134504 12.3204605 -13.21782351 9.2112545 -13 5 C-12.29875 4.9175 -11.5975 4.835 -10.875 4.75 C-6.90752625 3.71500685 -3.98043785 0 0 0 Z " fill="#37414F" transform="translate(83,72)"/>
<path d="M0 0 C2.60969084 1.57954972 3.34104935 2.61763459 4.375 5.4375 C3.08534824 6.81312854 1.74810707 8.14516393 0.375 9.4375 C-0.285 9.4375 -0.945 9.4375 -1.625 9.4375 C-1.3775 10.015 -1.13 10.5925 -0.875 11.1875 C-0.625 13.4375 -0.625 13.4375 -2.1875 15.625 C-5.0409895 17.74682553 -7.12088735 18.1189443 -10.625 18.4375 C-10.73341951 16.52208862 -10.81078079 14.60490227 -10.875 12.6875 C-10.92140625 11.62015625 -10.9678125 10.5528125 -11.015625 9.453125 C-10.536362 5.75321461 -9.45751411 4.76026667 -6.625 2.4375 C-5.985625 1.81875 -5.34625 1.2 -4.6875 0.5625 C-2.625 -0.5625 -2.625 -0.5625 0 0 Z " fill="#909BAA" transform="translate(65.625,73.5625)"/>
<path d="M0 0 C0.66 0 1.32 0 2 0 C3 1 4 2 5 3 C5.66 3 6.32 3 7 3 C7.66 4.65 8.32 6.3 9 8 C7.68 7.34 6.36 6.68 5 6 C4.443125 7.0725 3.88625 8.145 3.3125 9.25 C0.42285322 14.28653225 -3.37701395 17.39343256 -9 19 C-11.3320802 19.07646165 -13.66845878 19.09143299 -16 19 C-14.74458443 16.48916886 -13.49936512 16.12874554 -11 15 C-11 14.01 -11 13.02 -11 12 C-9.68 12 -8.36 12 -7 12 C-6.855625 11.236875 -6.71125 10.47375 -6.5625 9.6875 C-6 7 -6 7 -5 4 C-2.4375 2.8125 -2.4375 2.8125 0 2 C0 1.34 0 0.68 0 0 Z " fill="#367AA3" transform="translate(91,91)"/>
<path d="M0 0 C0.33 0 0.66 0 1 0 C2.08691463 18.6587011 2.08691463 18.6587011 -3.58984375 25.6640625 C-5 27 -5 27 -6 27 C-6 23.37 -6 19.74 -6 16 C-6.66 16 -7.32 16 -8 16 C-8.48929664 8.78287462 -8.48929664 8.78287462 -6.125 5 C-4 3 -4 3 -2 3 C-2.33 4.65 -2.66 6.3 -3 8 C-2.01 8 -1.02 8 0 8 C0 5.36 0 2.72 0 0 Z " fill="#497A91" transform="translate(93,66)"/>
<path d="M0 0 C2 1 2 1 3 3 C3.13946188 6.14848191 2.94912937 9.29039288 2.8125 12.4375 C2.79380859 13.30955078 2.77511719 14.18160156 2.75585938 15.08007812 C2.47391877 21.5152488 2.47391877 21.5152488 -0.05078125 24.09765625 C-2 25 -2 25 -3.9375 24.375 C-6 23 -6 23 -6.8125 20 C-7 17 -7 17 -6 15 C-4.35 15 -2.7 15 -1 15 C-1.52078125 14.44699219 -2.0415625 13.89398438 -2.578125 13.32421875 C-4 11 -4 11 -3.671875 8.45703125 C-3.36765625 7.58433594 -3.0634375 6.71164063 -2.75 5.8125 C-2.45609375 4.93207031 -2.1621875 4.05164063 -1.859375 3.14453125 C-1 1 -1 1 0 0 Z " fill="#437594" transform="translate(53,77)"/>
<path d="M0 0 C0.66 0 1.32 0 2 0 C2.25858421 3.31087419 2.47633307 6.62329062 2.6875 9.9375 C2.76033203 10.86369141 2.83316406 11.78988281 2.90820312 12.74414062 C3.2436846 18.36838885 2.76264287 22.54863871 0.75024414 27.80053711 C-0.52864987 31.5498232 -0.78747296 35.38461179 -1.125 39.3125 C-1.27101949 40.87132214 -1.41937595 42.42992753 -1.5703125 43.98828125 C-1.65949951 45.00208862 -1.65949951 45.00208862 -1.75048828 46.03637695 C-2.01044378 48.08219109 -2.46196406 50.0108217 -3 52 C-2.34 52.33 -1.68 52.66 -1 53 C-1.66 53.66 -2.32 54.32 -3 55 C-3.99 55 -4.98 55 -6 55 C-5.86722656 54.44054688 -5.73445312 53.88109375 -5.59765625 53.3046875 C-4.18195428 46.87719387 -3.59940313 40.57257663 -3.24609375 34.00390625 C-3 31 -3 31 -2 28 C-1.94202933 26.62358592 -1.9384332 25.24439667 -1.97265625 23.8671875 C-1.98490234 23.06023438 -1.99714844 22.25328125 -2.00976562 21.421875 C-2.04443859 19.74729919 -2.08337731 18.07280529 -2.12695312 16.3984375 C-2.2040852 10.66344115 -1.48682709 5.53870191 0 0 Z " fill="#2F637E" transform="translate(20,8)"/>
<path d="M0 0 C1.43088528 2.86177057 0.59991697 4.93375773 0 8 C0.99 7.67 1.98 7.34 3 7 C2.30535178 11.44574859 1.4267636 16.15690461 -1 20 C-4.6875 21.5 -4.6875 21.5 -8 22 C-6.68 20.02 -5.36 18.04 -4 16 C-5.32 15.67 -6.64 15.34 -8 15 C-7.0409375 13.6078125 -7.0409375 13.6078125 -6.0625 12.1875 C-3.91377907 9.15780057 -3.91377907 9.15780057 -3 6 C-3.680625 6.33 -4.36125 6.66 -5.0625 7 C-8.50840238 8.17307315 -11.38397422 8.14180493 -15 8 C-14 6 -14 6 -12.109375 5.25390625 C-11.33078125 5.02574219 -10.5521875 4.79757813 -9.75 4.5625 C-6.15333913 3.43818496 -3.14241254 2.12873108 0 0 Z " fill="#5D8EA1" transform="translate(75,48)"/>
<path d="M0 0 C0.66 0 1.32 0 2 0 C0.52915505 13.97302699 0.52915505 13.97302699 -3.875 18 C-7 20 -7 20 -9.375 19.8125 C-9.91125 19.544375 -10.4475 19.27625 -11 19 C-11.33 19.66 -11.66 20.32 -12 21 C-12.66 20.01 -13.32 19.02 -14 18 C-13.360625 17.38125 -12.72125 16.7625 -12.0625 16.125 C-9.96116416 14.17402388 -9.96116416 14.17402388 -9 12 C-8.34 12 -7.68 12 -7 12 C-6.938125 11.278125 -6.87625 10.55625 -6.8125 9.8125 C-5.75334493 6.14619401 -3.76525038 4.55785661 -1 2 C-0.67 1.34 -0.34 0.68 0 0 Z " fill="#3E87AA" transform="translate(81,56)"/>
<path d="M0 0 C1.35622245 0.96873032 2.68441297 1.97676564 4 3 C5.46936504 3.33759423 6.95083236 3.62435521 8.4375 3.875 C13.11061794 4.76952423 15.02406415 6.35207864 18 10 C16.95005859 9.51466797 16.95005859 9.51466797 15.87890625 9.01953125 C12.72928954 7.90413103 10.27004413 7.70013923 6.9375 7.6875 C5.40416016 7.66236328 5.40416016 7.66236328 3.83984375 7.63671875 C0.57404316 8.05448966 -0.68698955 8.68698955 -3 11 C-7.08817202 17.99026943 -8.23520513 24.96742138 -6.31640625 32.78515625 C-5.6022088 35.21479446 -4.83803454 37.61060389 -4 40 C-5.70840281 38.36587557 -6.93453047 37.13093906 -8 35 C-8.99 35.495 -8.99 35.495 -10 36 C-9.9278125 34.86820313 -9.855625 33.73640625 -9.78125 32.5703125 C-9.68746717 31.08854374 -9.59371896 29.6067728 -9.5 28.125 C-9.45230469 27.37863281 -9.40460937 26.63226563 -9.35546875 25.86328125 C-9.09504139 21.93471364 -9.09504139 21.93471364 -9 18 C-9.66 18.33 -10.32 18.66 -11 19 C-9.21169455 12.44288001 -3.46175262 7.71399178 2 4 C-0.33317216 3.22227595 -2.61435923 2.57584432 -5 2 C-2.75 0.8125 -2.75 0.8125 0 0 Z " fill="#42899F" transform="translate(42,10)"/>
<path d="M0 0 C4.875 3.625 4.875 3.625 6 7 C3.59540886 9.78426342 1.57783015 11.08651145 -2 12 C-5.36429178 11.86584113 -8.66866841 11.47867677 -12 11 C-8.22975157 7.07265789 -4.11529949 3.55593839 0 0 Z " fill="#C1DACA" transform="translate(62,24)"/>
<path d="M0 0 C1 2 1 2 0 5.125 C-1.33400624 9.34935311 -0.75867096 12.67557551 0 17 C-1.98 17.99 -1.98 17.99 -4 19 C-6.5625 16.8125 -6.5625 16.8125 -9 14 C-9.25292024 9.32097547 -5.87590703 4.55748038 -3 1 C-2.01 0.67 -1.02 0.34 0 0 Z " fill="#748496" transform="translate(48,85)"/>
<path d="M0 0 C2.94929464 4.42394197 3.06201975 6.14011198 2.625 11.4375 C2.53476562 12.59121094 2.44453125 13.74492188 2.3515625 14.93359375 C2 18 2 18 1 21 C0.01 21 -0.98 21 -2 21 C-4 19 -4 19 -4.08203125 16.171875 C-3.19066148 4.85535442 -3.19066148 4.85535442 0 0 Z " fill="#4C9FB5" transform="translate(30,30)"/>
<path d="M0 0 C1.65581725 0.70620155 3.29951386 1.44087238 4.9375 2.1875 C5.85402344 2.59355469 6.77054688 2.99960937 7.71484375 3.41796875 C10 5 10 5 10.81640625 7.67578125 C10.87699219 8.44277344 10.93757813 9.20976563 11 10 C9.576875 10.8971875 9.576875 10.8971875 8.125 11.8125 C4.86035803 13.81562526 4.86035803 13.81562526 3 17 C2.67 14.69 2.34 12.38 2 10 C1.34 10 0.68 10 0 10 C0 9.01 0 8.02 0 7 C-0.66 7 -1.32 7 -2 7 C-2 6.34 -2 5.68 -2 5 C-0.68 5 0.64 5 2 5 C1.34 3.35 0.68 1.7 0 0 Z " fill="#FAE3D4" transform="translate(45,51)"/>
<path d="M0 0 C1.32 0 2.64 0 4 0 C4.268125 0.804375 4.53625 1.60875 4.8125 2.4375 C5.204375 3.283125 5.59625 4.12875 6 5 C6.99 5.33 7.98 5.66 9 6 C8.01 6.33 7.02 6.66 6 7 C6.49113281 8.21042969 6.49113281 8.21042969 6.9921875 9.4453125 C8.20401292 13.71958047 8.22214556 17.46608628 8.125 21.875 C8.11597656 22.65875 8.10695313 23.4425 8.09765625 24.25 C8.07428063 26.16680055 8.03841653 28.08344191 8 30 C5.03652972 25.55479458 4.03436345 21.01599615 3.5625 15.75 C3.05594794 10.3186363 1.54959015 5.21402974 0 0 Z " fill="#394553" transform="translate(78,3)"/>
<path d="M0 0 C1.98 0 3.96 0 6 0 C5.67 0.99 5.34 1.98 5 3 C4.01 2.67 3.02 2.34 2 2 C1.34 4.97 0.68 7.94 0 11 C-1.98 11 -3.96 11 -6 11 C-7.32 8.03 -8.64 5.06 -10 2 C-6.7 2 -3.4 2 0 2 C0 1.34 0 0.68 0 0 Z " fill="#334859" transform="translate(52,116)"/>
<path d="M0 0 C1.31826804 3.95480412 0.29536133 6.11391601 -1 10 C-2 11 -2 11 -4.9375 11.1875 C-8 11 -8 11 -10 9 C-10.125 5.375 -10.125 5.375 -10 2 C-6.7 1.34 -3.4 0.68 0 0 Z " fill="#314556" transform="translate(68,117)"/>
<path d="M0 0 C1 2 1 2 0.2578125 4.42578125 C-0.11601562 5.37839844 -0.48984375 6.33101562 -0.875 7.3125 C-2.92807081 12.57439127 -4.14705979 17.14699412 -4.0625 22.8125 C-4.04896484 23.99779297 -4.04896484 23.99779297 -4.03515625 25.20703125 C-4.02355469 25.79871094 -4.01195312 26.39039062 -4 27 C-3.34 27 -2.68 27 -2 27 C-2 35.58 -2 44.16 -2 53 C-2.33 53 -2.66 53 -3 53 C-3.33 46.73 -3.66 40.46 -4 34 C-4.99 34.66 -5.98 35.32 -7 36 C-6.6724846 6.6724846 -6.6724846 6.6724846 0 0 Z " fill="#345E73" transform="translate(14,22)"/>
<path d="M0 0 C1.8125 0.8125 1.8125 0.8125 3.8125 2.8125 C3.58272157 5.18687707 2.96233321 6.59169317 1.625 8.5625 C-1.05442912 10.41038215 -3.01971897 10.21689758 -6.1875 9.8125 C-8.1875 6.8125 -8.1875 6.8125 -8.125 4.8125 C-6.52374752 1.3964947 -3.78155629 -0.3241334 0 0 Z " fill="#E7ACA0" transform="translate(57.1875,61.1875)"/>
<path d="M0 0 C5.45949074 1.09189815 6.01471081 1.68791562 9 6 C8.34 7.32 7.68 8.64 7 10 C6.01 9.67 5.02 9.34 4 9 C3.71125 10.134375 3.4225 11.26875 3.125 12.4375 C2.75375 13.613125 2.3825 14.78875 2 16 C1.34 16.33 0.68 16.66 0 17 C0 11.39 0 5.78 0 0 Z " fill="#1E2936" transform="translate(24,8)"/>
<path d="M0 0 C0.886875 0.309375 1.77375 0.61875 2.6875 0.9375 C11.70967881 3.46297804 20.3914503 3.93724366 29 0 C29.99 0.99 30.98 1.98 32 3 C31.278125 3.12375 30.55625 3.2475 29.8125 3.375 C27.04278106 3.9904931 24.6029646 4.88444374 22 6 C22 6.66 22 7.32 22 8 C21.38125 7.814375 20.7625 7.62875 20.125 7.4375 C17.95839822 6.76313824 17.95839822 6.76313824 16 8 C16.33 7.01 16.66 6.02 17 5 C14.03 4.67 11.06 4.34 8 4 C8 4.66 8 5.32 8 6 C5.03 5.67 2.06 5.34 -1 5 C-1 4.67 -1 4.34 -1 4 C0.65 3.67 2.3 3.34 4 3 C2.68 2.34 1.36 1.68 0 1 C0 0.67 0 0.34 0 0 Z " fill="#3A4F67" transform="translate(35,71)"/>
<path d="M0 0 C1.98 0.99 3.96 1.98 6 3 C5.67 3.99 5.34 4.98 5 6 C-0.20081385 8.02142314 -4.90941935 8.25650055 -10.4375 8.125 C-11.16904297 8.11597656 -11.90058594 8.10695313 -12.65429688 8.09765625 C-14.43634298 8.07436153 -16.21821759 8.0385019 -18 8 C-16.75 6 -16.75 6 -15 4 C-13.68 4 -12.36 4 -11 4 C-11 4.66 -11 5.32 -11 6 C-9.9275 5.690625 -8.855 5.38125 -7.75 5.0625 C-5.17133778 4.33187904 -2.60487898 3.62517096 0 3 C0 2.01 0 1.02 0 0 Z " fill="#E6D3C6" transform="translate(62,65)"/>
<path d="M0 0 C-2.21578429 2.27100633 -4.53443343 4.36652708 -6.9375 6.4375 C-9.73156787 8.86622935 -12.4340782 11.32716479 -15 14 C-14.73871517 7.72916407 -12.56644104 3.38463894 -8 -1 C-4.59472448 -2.2987863 -3.09684947 -1.88023003 0 0 Z " fill="#78D6D4" transform="translate(45,14)"/>
<path d="M0 0 C4.51322812 6.76984218 4.31726537 14.9144242 4.25 22.8125 C4.25773437 23.73998047 4.26546875 24.66746094 4.2734375 25.62304688 C4.27085938 26.51701172 4.26828125 27.41097656 4.265625 28.33203125 C4.26336914 29.13358643 4.26111328 29.9351416 4.25878906 30.76098633 C3.97414448 33.22369906 3.22933672 34.86453102 2 37 C1.7834375 35.8553125 1.7834375 35.8553125 1.5625 34.6875 C1.0367406 31.91827092 1.0367406 31.91827092 0 29 C0.32393985 27.34336023 0.70712572 25.69797346 1.125 24.0625 C2.30335322 18.28625873 1.35959302 14.00220516 -0.37109375 8.43359375 C-1 6 -1 6 0 4 C0 2.68 0 1.36 0 0 Z " fill="#34464F" transform="translate(105,42)"/>
<path d="M0 0 C2.45376788 1.63584525 3.24694017 2.76438229 4.25 5.5 C2.4375 7.5 2.4375 7.5 0.25 9.5 C-0.74 9.5 -1.73 9.5 -2.75 9.5 C-3.41 8.84 -4.07 8.18 -4.75 7.5 C-7.32061311 6.85232207 -7.32061311 6.85232207 -9.75 6.5 C-8.23214463 1.9464339 -4.92718943 -0.89585262 0 0 Z " fill="#888B97" transform="translate(65.75,73.5)"/>
<path d="M0 0 C0.66 0 1.32 0 2 0 C3.65 2.97 5.3 5.94 7 9 C7.99 8.67 8.98 8.34 10 8 C11 11 12 14 13 17 C4.66550523 16.19860627 4.66550523 16.19860627 2 13 C1.91201231 10.66832622 1.92094936 8.33199388 2 6 C1.08885464 2.67813829 1.08885464 2.67813829 0 0 Z " fill="#56B2C6" transform="translate(77,24)"/>
<path d="M0 0 C3.12840281 3.12840281 3.2919438 7.11154749 4.21875 11.34765625 C4.4765625 12.22292969 4.734375 13.09820312 5 14 C5.66 14.33 6.32 14.66 7 15 C6.649375 14.2575 6.29875 13.515 5.9375 12.75 C4.9279902 9.78877125 5.12019116 8.87937439 6 6 C8.76081837 12.3618858 9.63176001 18.09232563 10 25 C6.125 21.25 6.125 21.25 5 19 C4.34 19.33 3.68 19.66 3 20 C2.49395076 17.60530271 1.99500483 15.20948283 1.5 12.8125 C1.28537109 11.80219727 1.28537109 11.80219727 1.06640625 10.77148438 C0.31930158 7.12490207 -0.17352282 3.72351043 0 0 Z " fill="#5A9B9D" transform="translate(96,24)"/>
<path d="M0 0 C0.99 0.33 1.98 0.66 3 1 C2.83757813 1.55300781 2.67515625 2.10601562 2.5078125 2.67578125 C0.92964504 9.89893232 2.04901224 17.7487183 3 25 C-0.76182186 21.68074541 -1.83161477 17.77090638 -3 13 C-3.1875 9.4375 -3.1875 9.4375 -3 7 C-2.01 6.67 -1.02 6.34 0 6 C0 4.02 0 2.04 0 0 Z " fill="#204A6E" transform="translate(27,74)"/>
<path d="M0 0 C-0.33 1.98 -0.66 3.96 -1 6 C-0.01 6.33 0.98 6.66 2 7 C1.34 8.98 0.68 10.96 0 13 C-1.98 13 -3.96 13 -6 13 C-6.48929664 5.78287462 -6.48929664 5.78287462 -4.125 2 C-2 0 -2 0 0 0 Z " fill="#E5B7AD" transform="translate(91,69)"/>
<path d="M0 0 C0.33 0.66 0.66 1.32 1 2 C0.0625 4.125 0.0625 4.125 -1 6 C0.65 5.67 2.3 5.34 4 5 C4.06058594 6.03640625 4.12117187 7.0728125 4.18359375 8.140625 C4.26803371 9.51042873 4.35267997 10.88021975 4.4375 12.25 C4.47681641 12.93191406 4.51613281 13.61382812 4.55664062 14.31640625 C4.76666472 17.64448041 5.01934002 20.80255402 6 24 C3.42380724 22.08684881 3.01604768 21.0983686 2.48828125 17.86328125 C2.43027344 16.69152344 2.37226563 15.51976563 2.3125 14.3125 C2.24675781 13.13300781 2.18101563 11.95351562 2.11328125 10.73828125 C2.07589844 9.83464844 2.03851563 8.93101563 2 8 C1.39671875 8.48082031 0.7934375 8.96164063 0.171875 9.45703125 C-2.25047518 11.17794549 -4.08577697 11.5952468 -7 12 C-6.42341728 8.10806661 -4.5000475 5.95460159 -2 3 C-1.34 2.01 -0.68 1.02 0 0 Z " fill="#2C526C" transform="translate(7,97)"/>
<path d="M0 0 C2.15266842 2.15266842 2.93474462 3.84773744 4.125 6.625 C4.47820313 7.44226563 4.83140625 8.25953125 5.1953125 9.1015625 C5.46085937 9.72804688 5.72640625 10.35453125 6 11 C5.67 10.01 5.34 9.02 5 8 C10.75 9.875 10.75 9.875 13 11 C12.67 11.66 12.34 12.32 12 13 C11.34 12.67 10.68 12.34 10 12 C10.99 13.98 11.98 15.96 13 18 C10 18 10 18 7.625 15.875 C6.75875 14.92625 5.8925 13.9775 5 13 C4.52691406 12.49597656 4.05382812 11.99195312 3.56640625 11.47265625 C0.73858034 8.32439681 0 7.38642052 0 3 C-0.66 2.67 -1.32 2.34 -2 2 C-1.34 1.34 -0.68 0.68 0 0 Z " fill="#255378" transform="translate(21,57)"/>
<path d="M0 0 C0.33 0 0.66 0 1 0 C1.33 3.63 1.66 7.26 2 11 C1.01 11.33 0.02 11.66 -1 12 C-0.98839844 12.556875 -0.97679688 13.11375 -0.96484375 13.6875 C-0.90323567 18.89778343 -1.25000656 23.8437951 -2 29 C-2.33 29 -2.66 29 -3 29 C-3.05880804 25.83341337 -3.09386406 22.66697007 -3.125 19.5 C-3.14175781 18.613125 -3.15851563 17.72625 -3.17578125 16.8125 C-3.21719782 11.17984622 -2.66910664 6.39059627 -1 1 C-0.67 0.67 -0.34 0.34 0 0 Z " fill="#437EA1" transform="translate(84,72)"/>
<path d="M0 0 C7.92119565 1.94293478 7.92119565 1.94293478 10 5 C10 5.99 10 6.98 10 8 C8.02 8.99 8.02 8.99 6 10 C8.97 10.495 8.97 10.495 12 11 C12 11.33 12 11.66 12 12 C9.03 12 6.06 12 3 12 C3 10.68 3 9.36 3 8 C2.36729133 6.65022151 1.69937532 5.31647119 1 4 C0.63215869 2.6757713 0.28797019 1.34386088 0 0 Z " fill="#2D5672" transform="translate(70,99)"/>
<path d="M0 0 C0.33 0 0.66 0 1 0 C1 3.3 1 6.6 1 10 C-0.98 10.99 -0.98 10.99 -3 12 C-4.5625 10.375 -4.5625 10.375 -6 8 C-5.6875 4.75 -5.6875 4.75 -5 2 C-3.35 2 -1.7 2 0 2 C0 1.34 0 0.68 0 0 Z " fill="#4791B9" transform="translate(52,90)"/>
<path d="M0 0 C3 3 6 6 9 9 C7.35 8.67 5.7 8.34 4 8 C4.0825 8.928125 4.165 9.85625 4.25 10.8125 C4.1675 11.864375 4.085 12.91625 4 14 C2.68 14.99 1.36 15.98 0 17 C0 11.39 0 5.78 0 0 Z " fill="#456D8F" transform="translate(23,66)"/>
<path d="M0 0 C2.31 0 4.62 0 7 0 C7 1.32 7 2.64 7 4 C7.30404678 5.67225729 7.63128912 7.34080104 8 9 C5.36 9 2.72 9 0 9 C0 6.03 0 3.06 0 0 Z " fill="#2B3441" transform="translate(53,104)"/>
<path d="M0 0 C0.33 0 0.66 0 1 0 C1 2.31 1 4.62 1 7 C1.66 7 2.32 7 3 7 C2.39301257 11.12751449 0.96189209 14.3321148 -1 18 C-3.70272533 15.12835434 -4.94791837 13.69008159 -5.25 9.6875 C-5.1675 8.800625 -5.085 7.91375 -5 7 C-4.34 7 -3.68 7 -3 7 C-2.67 7.66 -2.34 8.32 -2 9 C-0.50256881 7.50256881 -0.66797307 6.01175761 -0.4375 3.9375 C-0.293125 2.638125 -0.14875 1.33875 0 0 Z " fill="#2D536D" transform="translate(11,77)"/>
<path d="M0 0 C3.375 0.6875 3.375 0.6875 7 2 C9.05433721 5.30480334 9.21915093 8.16485872 9 12 C6.1875 11.0625 6.1875 11.0625 3 9 C1.59362918 6.09453062 0.74890884 3.13359225 0 0 Z " fill="#489DB5" transform="translate(35,42)"/>
<path d="M0 0 C1.60294922 0.04060547 1.60294922 0.04060547 3.23828125 0.08203125 C4.04652344 0.11683594 4.85476562 0.15164062 5.6875 0.1875 C5.6875 1.1775 5.6875 2.1675 5.6875 3.1875 C3.0475 3.1875 0.4075 3.1875 -2.3125 3.1875 C-2.3125 3.8475 -2.3125 4.5075 -2.3125 5.1875 C-4.9525 5.1875 -7.5925 5.1875 -10.3125 5.1875 C-10.6425 4.5275 -10.9725 3.8675 -11.3125 3.1875 C-7.38423635 0.41074962 -4.78125108 -0.15762366 0 0 Z " fill="#657A93" transform="translate(54.3125,112.8125)"/>
<path d="M0 0 C0.66 0 1.32 0 2 0 C2.25477428 3.4361064 2.47439003 6.87357801 2.6875 10.3125 C2.76033203 11.28896484 2.83316406 12.26542969 2.90820312 13.27148438 C2.96298828 14.20927734 3.01777344 15.14707031 3.07421875 16.11328125 C3.13182373 16.97735596 3.18942871 17.84143066 3.2487793 18.73168945 C3 21 3 21 1.49536133 22.80541992 C1.00189209 23.19963135 0.50842285 23.59384277 0 24 C-0.19632025 20.3754207 -0.38055978 16.75032733 -0.5625 13.125 C-0.64661133 11.57619141 -0.64661133 11.57619141 -0.73242188 9.99609375 C-0.78076172 9.00996094 -0.82910156 8.02382813 -0.87890625 7.0078125 C-0.9260376 6.09660645 -0.97316895 5.18540039 -1.02172852 4.24658203 C-1 2 -1 2 0 0 Z " fill="#222631" transform="translate(20,8)"/>
<path d="M0 0 C-0.56410871 3.94876098 -1.65735794 6.75634176 -4 10 C-4.99 10.33 -5.98 10.66 -7 11 C-10 7.375 -10 7.375 -10 4 C-8.02 3.67 -6.04 3.34 -4 3 C-4.33 2.34 -4.66 1.68 -5 1 C-2 0 -2 0 0 0 Z " fill="#EABBAF" transform="translate(72,54)"/>
<path d="M0 0 C0.33 0.66 0.66 1.32 1 2 C0.525625 3.010625 0.05125 4.02125 -0.4375 5.0625 C-3.93763366 12.86924973 -1.71285092 20.26514529 1 28 C-0.70840281 26.36587557 -1.93453047 25.13093906 -3 23 C-3.66 23.33 -4.32 23.66 -5 24 C-4.9278125 22.86820313 -4.855625 21.73640625 -4.78125 20.5703125 C-4.68746717 19.08854374 -4.59371896 17.6067728 -4.5 16.125 C-4.45230469 15.37863281 -4.40460937 14.63226563 -4.35546875 13.86328125 C-4.09504139 9.93471364 -4.09504139 9.93471364 -4 6 C-4.99 6.495 -4.99 6.495 -6 7 C-4.52307692 2.32307692 -4.52307692 2.32307692 -1.875 0.6875 C-1.25625 0.460625 -0.6375 0.23375 0 0 Z " fill="#4F8797" transform="translate(37,22)"/>
<path d="M0 0 C4.19936589 3.74538039 6.2766211 6.73412001 8 12 C7.5703125 14.21484375 7.5703125 14.21484375 7 16 C6.15801693 14.90241493 5.32669329 13.79664683 4.5 12.6875 C4.0359375 12.07261719 3.571875 11.45773438 3.09375 10.82421875 C2 9 2 9 2 6 C1.34 6 0.68 6 0 6 C-0.66 4.68 -1.32 3.36 -2 2 C-1.34 2 -0.68 2 0 2 C0 1.34 0 0.68 0 0 Z " fill="#76D7D5" transform="translate(77,18)"/>
<path d="M0 0 C0.66 1.98 1.32 3.96 2 6 C-0.62315032 7.31157516 -2.23033436 6.89649988 -5.125 6.5625 C-6.03507812 6.46066406 -6.94515625 6.35882813 -7.8828125 6.25390625 C-8.58148438 6.17011719 -9.28015625 6.08632813 -10 6 C-4.2 0 -4.2 0 0 0 Z " fill="#B1DCCE" transform="translate(60,29)"/>
<path d="M0 0 C1.60031344 3.20062687 0.03173691 5.72271806 -1 9 C-1.33 7.68 -1.66 6.36 -2 5 C-4.72426311 7.35277269 -5.8141763 9.62496331 -7 13 C-6.175 13.61875 -5.35 14.2375 -4.5 14.875 C-3.675 15.57625 -2.85 16.2775 -2 17 C-2 17.66 -2 18.32 -2 19 C-4.84574968 17.72431911 -7.18089981 16.58503711 -9 14 C-9 9.19158358 -5.95353314 4.65350343 -3 1 C-2.01 0.67 -1.02 0.34 0 0 Z " fill="#7C8A9D" transform="translate(48,85)"/>
<path d="M0 0 C2.33333333 0 4.66666667 0 7 0 C5.23570801 4.97209562 2.6060834 9.43438061 0 14 C-1.03115279 10.73086376 -0.9638984 8.13958652 -0.5625 4.75 C-0.46066406 3.85796875 -0.35882813 2.9659375 -0.25390625 2.046875 C-0.17011719 1.37140625 -0.08632812 0.6959375 0 0 Z " fill="#62BBC6" transform="translate(94,74)"/>
<path d="M0 0 C3.91282553 0.06219809 4.74083344 0.08992073 7.75 2.8125 C9.125 5.4375 9.125 5.4375 9.125 7.4375 C7.805 7.1075 6.485 6.7775 5.125 6.4375 C5.125 5.7775 5.125 5.1175 5.125 4.4375 C3.475 4.4375 1.825 4.4375 0.125 4.4375 C0.125 4.1075 0.125 3.7775 0.125 3.4375 C-2.185 3.1075 -4.495 2.7775 -6.875 2.4375 C-4.39423136 -0.04326864 -3.43281791 0.08658443 0 0 Z " fill="#61A6A7" transform="translate(52.875,-0.4375)"/>
<path d="M0 0 C0.99 0.33 1.98 0.66 3 1 C3.94921875 3.06640625 3.94921875 3.06640625 4.6875 5.5625 C4.93886719 6.38878906 5.19023438 7.21507812 5.44921875 8.06640625 C5.63097656 8.70449219 5.81273438 9.34257812 6 10 C2.09161134 10 0.88405893 8.49432124 -2 6 C-1.34 4.02 -0.68 2.04 0 0 Z " fill="#202A36" transform="translate(72,5)"/>
<path d="M0 0 C2.97 0.33 5.94 0.66 9 1 C9 2.65 9 4.3 9 6 C7.02 6.66 5.04 7.32 3 8 C2.01 5.36 1.02 2.72 0 0 Z " fill="#353A48" transform="translate(42,118)"/>
<path d="M0 0 C0.66 0.33 1.32 0.66 2 1 C0.5 3.9375 0.5 3.9375 -2 7 C-4.76486571 7.83895734 -7.07439213 7.90247974 -10 8 C-10.33 7.01 -10.66 6.02 -11 5 C-9.93458984 4.58427734 -9.93458984 4.58427734 -8.84765625 4.16015625 C-7.46900391 3.61681641 -7.46900391 3.61681641 -6.0625 3.0625 C-5.14597656 2.70285156 -4.22945313 2.34320313 -3.28515625 1.97265625 C-1.07581467 1.2003782 -1.07581467 1.2003782 0 0 Z " fill="#3F84A6" transform="translate(73,107)"/>
<path d="M0 0 C0.66 0 1.32 0 2 0 C1.79503906 0.9178125 1.59007812 1.835625 1.37890625 2.78125 C-0.02559309 9.17877808 -1.34803367 15.48033667 -2 22 C-4 20 -4 20 -4.375 17.1875 C-4.2488762 11.25968157 -1.87304682 5.56060775 0 0 Z " fill="#4191B6" transform="translate(13,27)"/>
<path d="M0 0 C0.33 0.66 0.66 1.32 1 2 C1.66 2.33 2.32 2.66 3 3 C2.01 3 1.02 3 0 3 C0 2.01 0 1.02 0 0 Z M-12 3 C-10.68 3 -9.36 3 -8 3 C-8 3.66 -8 4.32 -8 5 C-6.02 5 -4.04 5 -2 5 C-2 5.33 -2 5.66 -2 6 C1.63 6.33 5.26 6.66 9 7 C7 9 7 9 4.390625 9.08203125 C-6.31885792 8.16293383 -6.31885792 8.16293383 -11 5 C-11.33 4.34 -11.66 3.68 -12 3 Z " fill="#DCC6BB" transform="translate(47,66)"/>
<path d="M0 0 C0.33 0 0.66 0 1 0 C1.55582752 1.95436127 2.09428713 3.91366982 2.625 5.875 C2.92664063 6.96554688 3.22828125 8.05609375 3.5390625 9.1796875 C3.69117188 10.11039063 3.84328125 11.04109375 4 12 C3.34 12.66 2.68 13.32 2 14 C1.67 13.67 1.34 13.34 1 13 C0.67 14.65 0.34 16.3 0 18 C-0.33 18 -0.66 18 -1 18 C-1.09945415 11.88909517 -1.0712828 6.02596573 0 0 Z " fill="#3E8AAD" transform="translate(19,38)"/>
<path d="M0 0 C0.66 0.33 1.32 0.66 2 1 C1.66226563 1.47050781 1.32453125 1.94101563 0.9765625 2.42578125 C0.53054687 3.04839844 0.08453125 3.67101562 -0.375 4.3125 C-1.03628906 5.23482422 -1.03628906 5.23482422 -1.7109375 6.17578125 C-2.83410907 7.7652392 -3.92041447 9.38062171 -5 11 C-6.32 10.67 -7.64 10.34 -9 10 C-8.67 7.69 -8.34 5.38 -8 3 C-7.13375 3.37125 -7.13375 3.37125 -6.25 3.75 C-5.5075 3.8325 -4.765 3.915 -4 4 C-1.72855926 2.14567913 -1.72855926 2.14567913 0 0 Z " fill="#4593AD" transform="translate(35,13)"/>
<path d="M0 0 C4 2 4 2 6 4 C6.125 7.125 6.125 7.125 6 10 C4.35 9.67 2.7 9.34 1 9 C0.67 6.03 0.34 3.06 0 0 Z " fill="#DBD6C4" transform="translate(89,11)"/>
<path d="M0 0 C0.66 0 1.32 0 2 0 C2.33 5.94 2.66 11.88 3 18 C2.01 18.33 1.02 18.66 0 19 C0 12.73 0 6.46 0 0 Z " fill="#BD6681" transform="translate(22,8)"/>
<path d="M0 0 C4.72065967 1.54269924 9.41664092 3.07794619 14 5 C13.67 5.66 13.34 6.32 13 7 C11.3934324 6.74379316 9.7897517 6.46944129 8.1875 6.1875 C7.29417969 6.03667969 6.40085937 5.88585937 5.48046875 5.73046875 C2.79468026 4.93953576 1.67786678 4.21300038 0 2 C0 1.34 0 0.68 0 0 Z " fill="#2D6691" transform="translate(34,108)"/>
<path d="M0 0 C1.32 0 2.64 0 4 0 C4 0.66 4 1.32 4 2 C6.64 1.67 9.28 1.34 12 1 C11.67 1.99 11.34 2.98 11 4 C6.38 4 1.76 4 -3 4 C-2.01 2.68 -1.02 1.36 0 0 Z " fill="#FBE8D8" transform="translate(47,69)"/>
<path d="M0 0 C2 2 2 2 2.375 4.875 C1.92491816 8.62568199 0.87398748 9.66488517 -2 12 C-2 8.37 -2 4.74 -2 1 C-1.34 0.67 -0.68 0.34 0 0 Z " fill="#2B6794" transform="translate(89,81)"/>
<path d="M0 0 C3.16115776 1.36983503 3.9927092 1.9890638 6 5 C3.525 4.01 3.525 4.01 1 3 C0.34 4.65 -0.32 6.3 -1 8 C0.32 8.99 1.64 9.98 3 11 C0.6875 10.8125 0.6875 10.8125 -2 10 C-3.8125 7.4375 -3.8125 7.4375 -5 5 C-3.35 3.35 -1.7 1.7 0 0 Z " fill="#1F2734" transform="translate(38,99)"/>
<path d="M0 0 C0.66 0 1.32 0 2 0 C3.65 2.97 5.3 5.94 7 9 C7.99 8.67 8.98 8.34 10 8 C10.309375 8.94875 10.61875 9.8975 10.9375 10.875 C11.87394742 13.86080408 11.87394742 13.86080408 13 16 C7.0629956 13.43688797 2.98476196 8.3976813 0.5625 2.5 C0.376875 1.675 0.19125 0.85 0 0 Z " fill="#458292" transform="translate(77,24)"/>
<path d="M0 0 C4.29 0 8.58 0 13 0 C12.34 0.66 11.68 1.32 11 2 C11.99 2.66 12.98 3.32 14 4 C10.99166904 5.50416548 8.65038422 4.60839737 5.375 4.0625 C4.18648437 3.86785156 2.99796875 3.67320313 1.7734375 3.47265625 C0.40058594 3.23869141 0.40058594 3.23869141 -1 3 C-0.67 2.01 -0.34 1.02 0 0 Z " fill="#488088" transform="translate(50,8)"/>
<path d="M0 0 C0.66 0 1.32 0 2 0 C2.66 2.64 3.32 5.28 4 8 C4.99 7.34 5.98 6.68 7 6 C5.71480435 8.86697492 4.42870746 10.97607712 2 13 C1.34 13 0.68 13 0 13 C0 8.71 0 4.42 0 0 Z " fill="#2E4556" transform="translate(95,113)"/>
<path d="M0 0 C1.95803507 -0.05389087 3.91648909 -0.09274217 5.875 -0.125 C7.51082031 -0.15980469 7.51082031 -0.15980469 9.1796875 -0.1953125 C12 0 12 0 14 2 C13.01 2 12.02 2 11 2 C12.32 3.65 13.64 5.3 15 7 C9.35424354 5.36900369 9.35424354 5.36900369 7.5 3.4375 C5.27674907 1.30688452 2.98041933 1.3311577 0 1 C0 0.67 0 0.34 0 0 Z " fill="#64AFB0" transform="translate(55,9)"/>
<path d="M0 0 C4.61400822 5.60918647 6.57113606 12.76560994 6 20 C3.89736898 16.84605348 2.98223382 14.17536296 1.875 10.5625 C1.52179688 9.42941406 1.16859375 8.29632813 0.8046875 7.12890625 C0 4 0 4 0 0 Z " fill="#D77491" transform="translate(77,3)"/>
<path d="M0 0 C0.66 0 1.32 0 2 0 C2.05437607 1.58294782 2.09296271 3.16644256 2.125 4.75 C2.14820312 5.63171875 2.17140625 6.5134375 2.1953125 7.421875 C1.99139502 10.1135858 1.36551721 11.69904974 0 14 C-0.144375 13.236875 -0.28875 12.47375 -0.4375 11.6875 C-0.9632594 8.91827092 -0.9632594 8.91827092 -2 6 C-1.0625 2.8125 -1.0625 2.8125 0 0 Z " fill="#3E6D7D" transform="translate(107,65)"/>
<path d="M0 0 C4.62 0.99 9.24 1.98 14 3 C14 3.33 14 3.66 14 4 C12.02 4 10.04 4 8 4 C8 4.66 8 5.32 8 6 C5.03 5.67 2.06 5.34 -1 5 C-1 4.67 -1 4.34 -1 4 C0.65 3.67 2.3 3.34 4 3 C2.68 2.34 1.36 1.68 0 1 C0 0.67 0 0.34 0 0 Z " fill="#294459" transform="translate(35,71)"/>
<path d="M0 0 C2.475 0.495 2.475 0.495 5 1 C5.84454356 4.37817425 6.10844919 6.67465243 5 10 C2.08772731 6.71195019 0.50298788 4.40114397 0 0 Z " fill="#72C5C5" transform="translate(71,14)"/>
<path d="M0 0 C0.93087014 2.51334938 1.00671536 3.96474437 0.5 6.625 C-1 9 -1 9 -4.625 10.3125 C-5.73875 10.539375 -6.8525 10.76625 -8 11 C-6.02 8.69 -4.04 6.38 -2 4 C-2.33 3.34 -2.66 2.68 -3 2 C-2.01 1.34 -1.02 0.68 0 0 Z " fill="#355169" transform="translate(75,59)"/>
<path d="M0 0 C2.96527758 2.4453385 3.55582214 4.44602347 4.1875 8.1875 C4.34605469 9.08855469 4.50460938 9.98960938 4.66796875 10.91796875 C4.83232422 11.94857422 4.83232422 11.94857422 5 13 C4.01 12.67 3.02 12.34 2 12 C0.19204568 7.9083139 -0.21156222 4.44280672 0 0 Z " fill="#7BDDDB" transform="translate(98,26)"/>
<path d="M0 0 C0 4.29 0 8.58 0 13 C-0.33 13 -0.66 13 -1 13 C-1 11.02 -1 9.04 -1 7 C-1.99 7.33 -2.98 7.66 -4 8 C-4.1875 5.125 -4.1875 5.125 -4 2 C-1 0 -1 0 0 0 Z " fill="#213040" transform="translate(87,82)"/>
<path d="M0 0 C0.33 0 0.66 0 1 0 C1.66 4.95 2.32 9.9 3 15 C1.68 14.67 0.36 14.34 -1 14 C-0.67 9.38 -0.34 4.76 0 0 Z " fill="#3F7282" transform="translate(102,62)"/>
<path d="M0 0 C0.99 1.32 1.98 2.64 3 4 C2.319375 4.804375 2.319375 4.804375 1.625 5.625 C-0.21688312 8.31698302 -1.07971933 10.88520388 -2 14 C-2.33 14 -2.66 14 -3 14 C-2.58846263 9.02906176 -2.20399168 4.55491614 0 0 Z " fill="#EEB7AE" transform="translate(33,43)"/>
<path d="M0 0 C0.99 0.99 1.98 1.98 3 3 C3.99 2.01 4.98 1.02 6 0 C5.34 3.3 4.68 6.6 4 10 C3.01 9.67 2.02 9.34 1 9 C1 8.01 1 7.02 1 6 C0.01 6.495 0.01 6.495 -1 7 C-0.67 4.69 -0.34 2.38 0 0 Z " fill="#59B3C5" transform="translate(29,25)"/>
<path d="M0 0 C0 0.99 0 1.98 0 3 C-1.98 3.99 -1.98 3.99 -4 5 C-1.03 5.495 -1.03 5.495 2 6 C2 6.33 2 6.66 2 7 C-0.97 7 -3.94 7 -7 7 C-7 5.68 -7 4.36 -7 3 C-4.66785852 1.79371992 -2.50357861 0.8345262 0 0 Z " fill="#284E68" transform="translate(80,104)"/>
<path d="M0 0 C3.7952131 1.49097658 5.61042731 3.75700849 8 7 C7.67 7.66 7.34 8.32 7 9 C5.68 8.67 4.36 8.34 3 8 C2.4465236 5.92446352 2 4.15634036 2 2 C1.34 2 0.68 2 0 2 C0 1.34 0 0.68 0 0 Z " fill="#E6E5D1" transform="translate(69,17)"/>
<path d="M0 0 C0 3 0 3 -1.53125 4.60546875 C-2.1809375 5.12753906 -2.830625 5.64960937 -3.5 6.1875 C-4.1496875 6.71730469 -4.799375 7.24710937 -5.46875 7.79296875 C-5.9740625 8.19128906 -6.479375 8.58960937 -7 9 C-7.66 7.02 -8.32 5.04 -9 3 C-8.01 3.33 -7.02 3.66 -6 4 C-2.81711646 2.12821884 -2.81711646 2.12821884 0 0 Z " fill="#275D8A" transform="translate(38,97)"/>
<path d="M0 0 C1.32 0.66 2.64 1.32 4 2 C4 3.32 4 4.64 4 6 C2.68 6.33 1.36 6.66 0 7 C-1.04449911 3.86650268 -0.93423645 3.01031744 0 0 Z " fill="#F0D6C9" transform="translate(65,74)"/>
<path d="M0 0 C0.33 1.32 0.66 2.64 1 4 C-1.97 4 -4.94 4 -8 4 C-8.33 3.34 -8.66 2.68 -9 2 C-2.25 0 -2.25 0 0 0 Z " fill="#E8C2B6" transform="translate(43,61)"/>
<path d="M0 0 C4.875 1.75 4.875 1.75 6 4 C5.01 4 4.02 4 3 4 C3.66 5.32 4.32 6.64 5 8 C-0.75 6.375 -0.75 6.375 -3 3 C-2.01 3.33 -1.02 3.66 0 4 C0 2.68 0 1.36 0 0 Z " fill="#608394" transform="translate(43,49)"/>
<path d="M0 0 C2.64 0 5.28 0 8 0 C7.67 1.32 7.34 2.64 7 4 C5.35 4 3.7 4 2 4 C1.34 2.68 0.68 1.36 0 0 Z " fill="#2B5474" transform="translate(37,114)"/>
<path d="M0 0 C0.33 0.99 0.66 1.98 1 3 C0.67 3.66 0.34 4.32 0 5 C1.32 5.66 2.64 6.32 4 7 C0.25 8.125 0.25 8.125 -2 7 C-2.33 7.66 -2.66 8.32 -3 9 C-3.66 8.01 -4.32 7.02 -5 6 C-4.360625 5.38125 -3.72125 4.7625 -3.0625 4.125 C-0.96116416 2.17402388 -0.96116416 2.17402388 0 0 Z " fill="#3C5C6B" transform="translate(72,68)"/>
<path d="M0 0 C2.475 0.99 2.475 0.99 5 2 C5 2.66 5 3.32 5 4 C3.37419034 3.88601335 1.74932843 3.75844341 0.125 3.625 C-0.77992187 3.55539063 -1.68484375 3.48578125 -2.6171875 3.4140625 C-5 3 -5 3 -7 1 C-5.5459375 1.0309375 -5.5459375 1.0309375 -4.0625 1.0625 C-1.12534105 1.35618499 -1.12534105 1.35618499 0 0 Z " fill="#2C506A" transform="translate(36,119)"/>
<path d="M0 0 C1.32 0 2.64 0 4 0 C3.34 2.31 2.68 4.62 2 7 C1.01 6.67 0.02 6.34 -1 6 C-1.042721 4.33388095 -1.04063832 2.66617115 -1 1 C-0.67 0.67 -0.34 0.34 0 0 Z " fill="#D5A9A1" transform="translate(44,76)"/>
<path d="M0 0 C2.475 0.495 2.475 0.495 5 1 C5 1.66 5 2.32 5 3 C6.32 3.66 7.64 4.32 9 5 C9 5.33 9 5.66 9 6 C6.1875 6.25 6.1875 6.25 3 6 C1.125 4.125 1.125 4.125 0 2 C0 1.34 0 0.68 0 0 Z " fill="#2C6693" transform="translate(31,69)"/>
<path d="M0 0 C2.05078125 0.03255208 4.1015625 0.06510417 6.15234375 0.09765625 C6.48234375 0.75765625 6.81234375 1.41765625 7.15234375 2.09765625 C4.84234375 2.09765625 2.53234375 2.09765625 0.15234375 2.09765625 C0.15234375 3.74765625 0.15234375 5.39765625 0.15234375 7.09765625 C-0.50765625 7.09765625 -1.16765625 7.09765625 -1.84765625 7.09765625 C-2.22898924 5.10625065 -2.56091207 3.10486548 -2.84765625 1.09765625 C-1.84765625 0.09765625 -1.84765625 0.09765625 0 0 Z " fill="#408AA4" transform="translate(85.84765625,39.90234375)"/>
<path d="M0 0 C0.66 0 1.32 0 2 0 C2 4.29 2 8.58 2 13 C-0.51736102 9.22395846 -1.2628809 6.68994863 -0.5625 2.1875 C-0.376875 1.465625 -0.19125 0.74375 0 0 Z " fill="#1A2634" transform="translate(84,20)"/>
<path d="M0 0 C2.1875 1.4375 2.1875 1.4375 4 3 C2.8553125 3.185625 2.8553125 3.185625 1.6875 3.375 C-1.20267136 3.88102792 -1.20267136 3.88102792 -4 6 C-4.99 6 -5.98 6 -7 6 C-7 5.34 -7 4.68 -7 4 C-5.68 3.67 -4.36 3.34 -3 3 C-3 2.34 -3 1.68 -3 1 C-2.01 0.67 -1.02 0.34 0 0 Z " fill="#506073" transform="translate(63,71)"/>
<path d="M0 0 C-0.33 0.99 -0.66 1.98 -1 3 C-4.47325181 4.1577506 -7.36067448 4.06866652 -11 4 C-10 2 -10 2 -6.625 0.875 C-3 0 -3 0 0 0 Z " fill="#2E0F13" transform="translate(71,52)"/>
<path d="M0 0 C0.99 0.495 0.99 0.495 2 1 C2 2.98 2 4.96 2 7 C2.66 7 3.32 7 4 7 C3.34 9.31 2.68 11.62 2 14 C1.67 14 1.34 14 1 14 C0.67 9.38 0.34 4.76 0 0 Z " fill="#357794" transform="translate(82,40)"/>
<path d="M0 0 C-1.97420135 2.52259061 -2.96745642 2.9929808 -6.1875 3.6875 C-7.5796875 3.8421875 -7.5796875 3.8421875 -9 4 C-9.33 3.01 -9.66 2.02 -10 1 C-6.59437148 0.22157062 -3.49234244 -0.09978121 0 0 Z " fill="#4B2529" transform="translate(44,59)"/>
<path d="M0 0 C0 1.65 0 3.3 0 5 C-2.31 4.67 -4.62 4.34 -7 4 C-3.375 0 -3.375 0 0 0 Z " fill="#9CCDC5" transform="translate(57,31)"/>
<path d="M0 0 C2.67901932 2.31881505 3.66204403 4.31814468 4.6875 7.6875 C4.93886719 8.49574219 5.19023438 9.30398437 5.44921875 10.13671875 C5.63097656 10.75160156 5.81273438 11.36648437 6 12 C4.5 10.6875 4.5 10.6875 3 9 C3 8.01 3 7.02 3 6 C2.01 5.67 1.02 5.34 0 5 C0 3.35 0 1.7 0 0 Z " fill="#7D8F8C" transform="translate(95,17)"/>
<path d="M0 0 C0.33 0 0.66 0 1 0 C2.19287411 3.87684087 3 6.91621923 3 11 C0.525 10.01 0.525 10.01 -2 9 C-1.34 6.03 -0.68 3.06 0 0 Z " fill="#5E6D81" transform="translate(66,87)"/>
<path d="M0 0 C0.33 0 0.66 0 1 0 C1 2.31 1 4.62 1 7 C1.66 7 2.32 7 3 7 C2.25 11.75 2.25 11.75 0 14 C0 9.38 0 4.76 0 0 Z " fill="#2C5C7D" transform="translate(11,77)"/>
<path d="M0 0 C0.66 0 1.32 0 2 0 C1.67 2.31 1.34 4.62 1 7 C-0.32 6.67 -1.64 6.34 -3 6 C-2.01 4.02 -1.02 2.04 0 0 Z " fill="#4795BC" transform="translate(52,82)"/>
<path d="M0 0 C0.99 0 1.98 0 3 0 C2.79375 0.5775 2.5875 1.155 2.375 1.75 C1.91338739 4.51967567 2.57055055 5.64561267 4 8 C2.35 8 0.7 8 -1 8 C-0.67 5.36 -0.34 2.72 0 0 Z " fill="#3D5B71" transform="translate(48,84)"/>
<path d="M0 0 C0.94875 0.04125 1.8975 0.0825 2.875 0.125 C2.875 0.785 2.875 1.445 2.875 2.125 C-1.58 3.61 -1.58 3.61 -6.125 5.125 C-4.7964923 1.13947691 -4.27916485 0.17116659 0 0 Z " fill="#75818E" transform="translate(40.125,64.875)"/>
<path d="M0 0 C2.95183101 2.95183101 3.08663988 5.95511947 4 10 C2 8.75 2 8.75 0 7 C0 5.68 0 4.36 0 3 C-0.66 2.67 -1.32 2.34 -2 2 C-1.34 1.34 -0.68 0.68 0 0 Z " fill="#1F2F3F" transform="translate(21,57)"/>
<path d="M0 0 C2.97 0.33 5.94 0.66 9 1 C9 1.33 9 1.66 9 2 C7.02 2 5.04 2 3 2 C3.66 3.65 4.32 5.3 5 7 C4.01 7.495 4.01 7.495 3 8 C2.01 5.36 1.02 2.72 0 0 Z " fill="#223444" transform="translate(42,118)"/>
<path d="M0 0 C0.66 0.99 1.32 1.98 2 3 C-0.64 4.98 -3.28 6.96 -6 9 C-6.66 8.67 -7.32 8.34 -8 8 C-7.05125 7.4225 -6.1025 6.845 -5.125 6.25 C-2.23865902 4.17183449 -1.15904259 3.24531925 0 0 Z " fill="#7C8C9F" transform="translate(66,95)"/>
<path d="M0 0 C0.33 0 0.66 0 1 0 C2.28571429 8.57142857 2.28571429 8.57142857 1 12 C0.34 12 -0.32 12 -1 12 C-0.67 8.04 -0.34 4.08 0 0 Z " fill="#314C5C" transform="translate(5,56)"/>
<path d="M0 0 C2.56616632 3.84924948 2.55097676 6.4349304 3 11 C2.01 10.67 1.02 10.34 0 10 C-0.75 8.0625 -0.75 8.0625 -1 6 C-0.67 5.34 -0.34 4.68 0 4 C0 2.68 0 1.36 0 0 Z " fill="#487073" transform="translate(105,42)"/>
<path d="M0 0 C2.97 0.495 2.97 0.495 6 1 C6 1.33 6 1.66 6 2 C4.35 2.33 2.7 2.66 1 3 C2.65 3.33 4.3 3.66 6 4 C6 4.33 6 4.66 6 5 C3.69 5 1.38 5 -1 5 C-0.67 3.35 -0.34 1.7 0 0 Z " fill="#D2B2A9" transform="translate(60,52)"/>
<path d="M0 0 C1.65 1.65 3.3 3.3 5 5 C4.34 5.66 3.68 6.32 3 7 C2.01 7 1.02 7 0 7 C0 4.69 0 2.38 0 0 Z " fill="#EEB9B0" transform="translate(56,39)"/>
<path d="M0 0 C2.97 0.495 2.97 0.495 6 1 C6 1.99 6 2.98 6 4 C3 4 3 4 0 2 C0 1.34 0 0.68 0 0 Z " fill="#7BDFDC" transform="translate(66,11)"/>
<path d="M0 0 C1.90318884 2.85478326 2.4619099 4.41941308 3.125 7.6875 C3.29257813 8.49574219 3.46015625 9.30398437 3.6328125 10.13671875 C3.75398438 10.75160156 3.87515625 11.36648437 4 12 C1 10 1 10 0.48828125 7.6171875 C0.40126953 6.25980469 0.40126953 6.25980469 0.3125 4.875 C0.24675781 3.96492188 0.18101563 3.05484375 0.11328125 2.1171875 C0.07589844 1.41851562 0.03851563 0.71984375 0 0 Z " fill="#355C70" transform="translate(107,91)"/>
<path d="M0 0 C0.99 0.33 1.98 0.66 3 1 C2.67 2.32 2.34 3.64 2 5 C1.34 5 0.68 5 0 5 C0 5.66 0 6.32 0 7 C-0.99 6.67 -1.98 6.34 -3 6 C-2.01 4.02 -1.02 2.04 0 0 Z " fill="#5A6D83" transform="translate(48,79)"/>
<path d="M0 0 C0.99 0.33 1.98 0.66 3 1 C3 1.66 3 2.32 3 3 C4.45833358 4.62514468 4.45833358 4.62514468 6 6 C5.01 6.33 4.02 6.66 3 7 C0 3.375 0 3.375 0 0 Z " fill="#F1CBBE" transform="translate(62,58)"/>
<path d="M0 0 C3.37462715 0.54723683 5.08235 1.0549 8 3 C7.67 3.99 7.34 4.98 7 6 C5.35 6 3.7 6 2 6 C2.99 5.67 3.98 5.34 5 5 C4.54625 4.54625 4.0925 4.0925 3.625 3.625 C2.41666667 2.41666667 1.20833333 1.20833333 0 0 Z " fill="#FBEADA" transform="translate(61,47)"/>
<path d="M0 0 C0 0.99 0 1.98 0 3 C-2.31 3 -4.62 3 -7 3 C-7 2.34 -7 1.68 -7 1 C-4 0 -4 0 0 0 Z " fill="#3377A4" transform="translate(60,113)"/>
<path d="M0 0 C0.66 0 1.32 0 2 0 C1.6875 1.9375 1.6875 1.9375 1 4 C0.01 4.33 -0.98 4.66 -2 5 C-2.33 5.66 -2.66 6.32 -3 7 C-2.25 2.25 -2.25 2.25 0 0 Z " fill="#F5DACC" transform="translate(89,69)"/>
<path d="M0 0 C-1.32 1.32 -2.64 2.64 -4 4 C-4.66 3.67 -5.32 3.34 -6 3 C-6 2.01 -6 1.02 -6 0 C-3.50907189 -1.24546405 -2.58919267 -0.7767578 0 0 Z " fill="#3E5E76" transform="translate(89,70)"/>
<path d="M0 0 C-0.66 1.32 -1.32 2.64 -2 4 C-3.32 3.67 -4.64 3.34 -6 3 C-6 2.34 -6 1.68 -6 1 C-3 0 -3 0 0 0 Z " fill="#FCE6D4" transform="translate(71,64)"/>
<path d="M0 0 C2.7839183 1.39195915 2.97898997 3.15575779 4 6 C-0.75 5.25 -0.75 5.25 -3 3 C-2.01 3 -1.02 3 0 3 C0 2.01 0 1.02 0 0 Z " fill="#4D879F" transform="translate(52,50)"/>
<path d="M0 0 C1.98 0.99 3.96 1.98 6 3 C5.34 4.32 4.68 5.64 4 7 C2 6 2 6 0.875 2.9375 C0.58625 1.968125 0.2975 0.99875 0 0 Z " fill="#F2DBCC" transform="translate(45,51)"/>
</svg>
